<svg width="350" height="350" viewBox="0 0 350 350" fill="none" xmlns="http://www.w3.org/2000/svg">
<g clip-path="url(#clip0_36_202)">
<rect width="350" height="350" fill="white"/>
<path d="M41.617 60V44.355H48.211C49.191 44.355 50.038 44.53 50.752 44.88C51.466 45.216 52.012 45.706 52.39 46.35C52.768 46.98 52.957 47.729 52.957 48.597C52.957 49.353 52.761 50.046 52.369 50.676C51.991 51.292 51.396 51.782 50.584 52.146V51.096C51.298 51.376 51.879 51.733 52.327 52.167C52.775 52.587 53.097 53.063 53.293 53.595C53.503 54.127 53.608 54.687 53.608 55.275C53.608 56.745 53.125 57.9 52.159 58.74C51.207 59.58 49.898 60 48.232 60H41.617ZM44.095 57.795H48.421C49.247 57.795 49.905 57.571 50.395 57.123C50.885 56.661 51.13 56.052 51.13 55.296C51.13 54.526 50.885 53.917 50.395 53.469C49.905 53.007 49.247 52.776 48.421 52.776H44.095V57.795ZM44.095 50.592H48.274C48.946 50.592 49.485 50.403 49.891 50.025C50.297 49.633 50.5 49.122 50.5 48.492C50.5 47.862 50.297 47.372 49.891 47.022C49.485 46.672 48.946 46.497 48.274 46.497H44.095V50.592ZM55.926 60V44.103H58.299V60H55.926ZM65.1265 60.252C64.2725 60.252 63.5235 60.063 62.8795 59.685C62.2355 59.293 61.7315 58.754 61.3675 58.068C61.0175 57.368 60.8425 56.563 60.8425 55.653V48.639H63.2155V55.443C63.2155 55.961 63.3205 56.416 63.5305 56.808C63.7405 57.2 64.0345 57.508 64.4125 57.732C64.7905 57.942 65.2245 58.047 65.7145 58.047C66.2185 58.047 66.6595 57.935 67.0375 57.711C67.4155 57.487 67.7095 57.172 67.9195 56.766C68.1435 56.36 68.2555 55.884 68.2555 55.338V48.639H70.6075V60H68.3605V57.774L68.6125 58.068C68.3465 58.768 67.9055 59.307 67.2895 59.685C66.6735 60.063 65.9525 60.252 65.1265 60.252ZM78.7122 60.252C77.5782 60.252 76.5702 59.993 75.6882 59.475C74.8202 58.943 74.1412 58.229 73.6512 57.333C73.1612 56.423 72.9162 55.408 72.9162 54.288C72.9162 53.14 73.1612 52.125 73.6512 51.243C74.1552 50.361 74.8272 49.668 75.6672 49.164C76.5072 48.646 77.4592 48.387 78.5232 48.387C79.3772 48.387 80.1402 48.534 80.8122 48.828C81.4842 49.122 82.0512 49.528 82.5132 50.046C82.9752 50.55 83.3252 51.131 83.5632 51.789C83.8152 52.447 83.9412 53.147 83.9412 53.889C83.9412 54.071 83.9342 54.26 83.9202 54.456C83.9062 54.652 83.8782 54.834 83.8362 55.002H74.7852V53.112H82.4922L81.3582 53.973C81.4982 53.287 81.4492 52.678 81.2112 52.146C80.9872 51.6 80.6372 51.173 80.1612 50.865C79.6992 50.543 79.1532 50.382 78.5232 50.382C77.8932 50.382 77.3332 50.543 76.8432 50.865C76.3532 51.173 75.9752 51.621 75.7092 52.209C75.4432 52.783 75.3382 53.483 75.3942 54.309C75.3242 55.079 75.4292 55.751 75.7092 56.325C76.0032 56.899 76.4092 57.347 76.9272 57.669C77.4592 57.991 78.0612 58.152 78.7332 58.152C79.4192 58.152 80.0002 57.998 80.4762 57.69C80.9662 57.382 81.3512 56.983 81.6312 56.493L83.5632 57.438C83.3392 57.97 82.9892 58.453 82.5132 58.887C82.0512 59.307 81.4912 59.643 80.8332 59.895C80.1892 60.133 79.4822 60.252 78.7122 60.252ZM90.159 60V44.355H92.637V57.795H99.399V60H90.159ZM101.248 60V48.639H103.621V60H101.248ZM101.248 47.085V44.355H103.621V47.085H101.248ZM106.396 60V48.639H108.664V50.865L108.391 50.571C108.671 49.857 109.119 49.318 109.735 48.954C110.351 48.576 111.065 48.387 111.877 48.387C112.717 48.387 113.459 48.569 114.103 48.933C114.747 49.297 115.251 49.801 115.615 50.445C115.979 51.089 116.161 51.831 116.161 52.671V60H113.809V53.301C113.809 52.727 113.704 52.244 113.494 51.852C113.284 51.446 112.983 51.138 112.591 50.928C112.213 50.704 111.779 50.592 111.289 50.592C110.799 50.592 110.358 50.704 109.966 50.928C109.588 51.138 109.294 51.446 109.084 51.852C108.874 52.258 108.769 52.741 108.769 53.301V60H106.396ZM124.034 60.252C122.9 60.252 121.892 59.993 121.01 59.475C120.142 58.943 119.463 58.229 118.973 57.333C118.483 56.423 118.238 55.408 118.238 54.288C118.238 53.14 118.483 52.125 118.973 51.243C119.477 50.361 120.149 49.668 120.989 49.164C121.829 48.646 122.781 48.387 123.845 48.387C124.699 48.387 125.462 48.534 126.134 48.828C126.806 49.122 127.373 49.528 127.835 50.046C128.297 50.55 128.647 51.131 128.885 51.789C129.137 52.447 129.263 53.147 129.263 53.889C129.263 54.071 129.256 54.26 129.242 54.456C129.228 54.652 129.2 54.834 129.158 55.002H120.107V53.112H127.814L126.68 53.973C126.82 53.287 126.771 52.678 126.533 52.146C126.309 51.6 125.959 51.173 125.483 50.865C125.021 50.543 124.475 50.382 123.845 50.382C123.215 50.382 122.655 50.543 122.165 50.865C121.675 51.173 121.297 51.621 121.031 52.209C120.765 52.783 120.66 53.483 120.716 54.309C120.646 55.079 120.751 55.751 121.031 56.325C121.325 56.899 121.731 57.347 122.249 57.669C122.781 57.991 123.383 58.152 124.055 58.152C124.741 58.152 125.322 57.998 125.798 57.69C126.288 57.382 126.673 56.983 126.953 56.493L128.885 57.438C128.661 57.97 128.311 58.453 127.835 58.887C127.373 59.307 126.813 59.643 126.155 59.895C125.511 60.133 124.804 60.252 124.034 60.252ZM41.617 83V67.355H43.927L49.807 75.503H48.652L54.427 67.355H56.737V83H54.28V70.274L55.204 70.526L49.303 78.59H49.051L43.276 70.526L44.095 70.274V83H41.617ZM63.1425 83.252C62.3725 83.252 61.6935 83.119 61.1055 82.853C60.5315 82.573 60.0835 82.195 59.7615 81.719C59.4395 81.229 59.2785 80.655 59.2785 79.997C59.2785 79.381 59.4115 78.828 59.6775 78.338C59.9575 77.848 60.3845 77.435 60.9585 77.099C61.5325 76.763 62.2535 76.525 63.1215 76.385L67.0695 75.734V77.603L63.5835 78.212C62.9535 78.324 62.4915 78.527 62.1975 78.821C61.9035 79.101 61.7565 79.465 61.7565 79.913C61.7565 80.347 61.9175 80.704 62.2395 80.984C62.5755 81.25 63.0025 81.383 63.5205 81.383C64.1645 81.383 64.7245 81.243 65.2005 80.963C65.6905 80.683 66.0685 80.312 66.3345 79.85C66.6005 79.374 66.7335 78.849 66.7335 78.275V75.356C66.7335 74.796 66.5235 74.341 66.1035 73.991C65.6975 73.627 65.1515 73.445 64.4655 73.445C63.8355 73.445 63.2825 73.613 62.8065 73.949C62.3445 74.271 62.0015 74.691 61.7775 75.209L59.8035 74.222C60.0135 73.662 60.3565 73.172 60.8325 72.752C61.3085 72.318 61.8615 71.982 62.4915 71.744C63.1355 71.506 63.8145 71.387 64.5285 71.387C65.4245 71.387 66.2155 71.555 66.9015 71.891C67.6015 72.227 68.1405 72.696 68.5185 73.298C68.9105 73.886 69.1065 74.572 69.1065 75.356V83H66.8385V80.942L67.3215 81.005C67.0555 81.467 66.7125 81.866 66.2925 82.202C65.8865 82.538 65.4175 82.797 64.8855 82.979C64.3675 83.161 63.7865 83.252 63.1425 83.252ZM76.0811 83.252C74.9191 83.252 73.8971 82.965 73.0151 82.391C72.1471 81.817 71.5381 81.047 71.1881 80.081L73.0151 79.22C73.3231 79.864 73.7431 80.375 74.2751 80.753C74.8211 81.131 75.4231 81.32 76.0811 81.32C76.6411 81.32 77.0961 81.194 77.4461 80.942C77.7961 80.69 77.9711 80.347 77.9711 79.913C77.9711 79.633 77.8941 79.409 77.7401 79.241C77.5861 79.059 77.3901 78.912 77.1521 78.8C76.9281 78.688 76.6971 78.604 76.4591 78.548L74.6741 78.044C73.6941 77.764 72.9591 77.344 72.4691 76.784C71.9931 76.21 71.7551 75.545 71.7551 74.789C71.7551 74.103 71.9301 73.508 72.2801 73.004C72.6301 72.486 73.1131 72.087 73.7291 71.807C74.3451 71.527 75.0381 71.387 75.8081 71.387C76.8441 71.387 77.7681 71.646 78.5801 72.164C79.3921 72.668 79.9661 73.375 80.3021 74.285L78.4751 75.146C78.2511 74.6 77.8941 74.166 77.4041 73.844C76.9281 73.522 76.3891 73.361 75.7871 73.361C75.2691 73.361 74.8561 73.487 74.5481 73.739C74.2401 73.977 74.0861 74.292 74.0861 74.684C74.0861 74.95 74.1561 75.174 74.2961 75.356C74.4361 75.524 74.6181 75.664 74.8421 75.776C75.0661 75.874 75.2971 75.958 75.5351 76.028L77.3831 76.574C78.3211 76.84 79.0421 77.26 79.5461 77.834C80.0501 78.394 80.3021 79.066 80.3021 79.85C80.3021 80.522 80.1201 81.117 79.7561 81.635C79.4061 82.139 78.9161 82.538 78.2861 82.832C77.6561 83.112 76.9211 83.252 76.0811 83.252ZM86.8272 83.252C85.6652 83.252 84.6432 82.965 83.7612 82.391C82.8932 81.817 82.2842 81.047 81.9342 80.081L83.7612 79.22C84.0692 79.864 84.4892 80.375 85.0212 80.753C85.5672 81.131 86.1692 81.32 86.8272 81.32C87.3872 81.32 87.8422 81.194 88.1922 80.942C88.5422 80.69 88.7172 80.347 88.7172 79.913C88.7172 79.633 88.6402 79.409 88.4862 79.241C88.3322 79.059 88.1362 78.912 87.8982 78.8C87.6742 78.688 87.4432 78.604 87.2052 78.548L85.4202 78.044C84.4402 77.764 83.7052 77.344 83.2152 76.784C82.7392 76.21 82.5012 75.545 82.5012 74.789C82.5012 74.103 82.6762 73.508 83.0262 73.004C83.3762 72.486 83.8592 72.087 84.4752 71.807C85.0912 71.527 85.7842 71.387 86.5542 71.387C87.5902 71.387 88.5142 71.646 89.3262 72.164C90.1382 72.668 90.7122 73.375 91.0482 74.285L89.2212 75.146C88.9972 74.6 88.6402 74.166 88.1502 73.844C87.6742 73.522 87.1352 73.361 86.5332 73.361C86.0152 73.361 85.6022 73.487 85.2942 73.739C84.9862 73.977 84.8322 74.292 84.8322 74.684C84.8322 74.95 84.9022 75.174 85.0422 75.356C85.1822 75.524 85.3642 75.664 85.5882 75.776C85.8122 75.874 86.0432 75.958 86.2812 76.028L88.1292 76.574C89.0672 76.84 89.7882 77.26 90.2922 77.834C90.7962 78.394 91.0482 79.066 91.0482 79.85C91.0482 80.522 90.8662 81.117 90.5022 81.635C90.1522 82.139 89.6622 82.538 89.0322 82.832C88.4022 83.112 87.6672 83.252 86.8272 83.252ZM100.047 83V69.56H95.8892V67.355H106.599V69.56H102.504V83H100.047ZM106.97 83V71.639H109.238V73.928L109.028 73.592C109.28 72.85 109.686 72.318 110.246 71.996C110.806 71.66 111.478 71.492 112.262 71.492H112.955V73.655H111.968C111.184 73.655 110.547 73.9 110.057 74.39C109.581 74.866 109.343 75.552 109.343 76.448V83H106.97ZM117.98 83.252C117.21 83.252 116.531 83.119 115.943 82.853C115.369 82.573 114.921 82.195 114.599 81.719C114.277 81.229 114.116 80.655 114.116 79.997C114.116 79.381 114.249 78.828 114.515 78.338C114.795 77.848 115.222 77.435 115.796 77.099C116.37 76.763 117.091 76.525 117.959 76.385L121.907 75.734V77.603L118.421 78.212C117.791 78.324 117.329 78.527 117.035 78.821C116.741 79.101 116.594 79.465 116.594 79.913C116.594 80.347 116.755 80.704 117.077 80.984C117.413 81.25 117.84 81.383 118.358 81.383C119.002 81.383 119.562 81.243 120.038 80.963C120.528 80.683 120.906 80.312 121.172 79.85C121.438 79.374 121.571 78.849 121.571 78.275V75.356C121.571 74.796 121.361 74.341 120.941 73.991C120.535 73.627 119.989 73.445 119.303 73.445C118.673 73.445 118.12 73.613 117.644 73.949C117.182 74.271 116.839 74.691 116.615 75.209L114.641 74.222C114.851 73.662 115.194 73.172 115.67 72.752C116.146 72.318 116.699 71.982 117.329 71.744C117.973 71.506 118.652 71.387 119.366 71.387C120.262 71.387 121.053 71.555 121.739 71.891C122.439 72.227 122.978 72.696 123.356 73.298C123.748 73.886 123.944 74.572 123.944 75.356V83H121.676V80.942L122.159 81.005C121.893 81.467 121.55 81.866 121.13 82.202C120.724 82.538 120.255 82.797 119.723 82.979C119.205 83.161 118.624 83.252 117.98 83.252ZM126.719 83V71.639H128.987V73.865L128.714 73.571C128.994 72.857 129.442 72.318 130.058 71.954C130.674 71.576 131.388 71.387 132.2 71.387C133.04 71.387 133.782 71.569 134.426 71.933C135.07 72.297 135.574 72.801 135.938 73.445C136.302 74.089 136.484 74.831 136.484 75.671V83H134.132V76.301C134.132 75.727 134.027 75.244 133.817 74.852C133.607 74.446 133.306 74.138 132.914 73.928C132.536 73.704 132.102 73.592 131.612 73.592C131.122 73.592 130.681 73.704 130.289 73.928C129.911 74.138 129.617 74.446 129.407 74.852C129.197 75.258 129.092 75.741 129.092 76.301V83H126.719ZM143.224 83.252C142.062 83.252 141.04 82.965 140.158 82.391C139.29 81.817 138.681 81.047 138.331 80.081L140.158 79.22C140.466 79.864 140.886 80.375 141.418 80.753C141.964 81.131 142.566 81.32 143.224 81.32C143.784 81.32 144.239 81.194 144.589 80.942C144.939 80.69 145.114 80.347 145.114 79.913C145.114 79.633 145.037 79.409 144.883 79.241C144.729 79.059 144.533 78.912 144.295 78.8C144.071 78.688 143.84 78.604 143.602 78.548L141.817 78.044C140.837 77.764 140.102 77.344 139.612 76.784C139.136 76.21 138.898 75.545 138.898 74.789C138.898 74.103 139.073 73.508 139.423 73.004C139.773 72.486 140.256 72.087 140.872 71.807C141.488 71.527 142.181 71.387 142.951 71.387C143.987 71.387 144.911 71.646 145.723 72.164C146.535 72.668 147.109 73.375 147.445 74.285L145.618 75.146C145.394 74.6 145.037 74.166 144.547 73.844C144.071 73.522 143.532 73.361 142.93 73.361C142.412 73.361 141.999 73.487 141.691 73.739C141.383 73.977 141.229 74.292 141.229 74.684C141.229 74.95 141.299 75.174 141.439 75.356C141.579 75.524 141.761 75.664 141.985 75.776C142.209 75.874 142.44 75.958 142.678 76.028L144.526 76.574C145.464 76.84 146.185 77.26 146.689 77.834C147.193 78.394 147.445 79.066 147.445 79.85C147.445 80.522 147.263 81.117 146.899 81.635C146.549 82.139 146.059 82.538 145.429 82.832C144.799 83.112 144.064 83.252 143.224 83.252ZM149.77 83V71.639H152.143V83H149.77ZM149.77 70.085V67.355H152.143V70.085H149.77ZM159.831 83.126C158.641 83.126 157.717 82.79 157.059 82.118C156.401 81.446 156.072 80.501 156.072 79.283V73.781H154.077V71.639H154.392C154.924 71.639 155.337 71.485 155.631 71.177C155.925 70.869 156.072 70.449 156.072 69.917V69.035H158.445V71.639H161.028V73.781H158.445V79.178C158.445 79.57 158.508 79.906 158.634 80.186C158.76 80.452 158.963 80.662 159.243 80.816C159.523 80.956 159.887 81.026 160.335 81.026C160.447 81.026 160.573 81.019 160.713 81.005C160.853 80.991 160.986 80.977 161.112 80.963V83C160.916 83.028 160.699 83.056 160.461 83.084C160.223 83.112 160.013 83.126 159.831 83.126Z" fill="black"/>
<path d="M48.65 258V226.55H41.45V220.75H55.45V258H48.65ZM63.766 258V220.75H70.266L84.216 239.7H81.116L94.766 220.75H101.266V258H94.416V228.5L97.066 229.15L82.916 248H82.116L68.316 229.15L70.566 228.5V258H63.766ZM107.845 258V230.8H113.995V236.15L113.495 235.2C114.128 233.567 115.162 232.333 116.595 231.5C118.062 230.633 119.762 230.2 121.695 230.2C123.695 230.2 125.462 230.633 126.995 231.5C128.562 232.367 129.778 233.583 130.645 235.15C131.512 236.683 131.945 238.467 131.945 240.5V258H125.395V242.05C125.395 240.85 125.162 239.817 124.695 238.95C124.228 238.083 123.578 237.417 122.745 236.95C121.945 236.45 120.995 236.2 119.895 236.2C118.828 236.2 117.878 236.45 117.045 236.95C116.212 237.417 115.562 238.083 115.095 238.95C114.628 239.817 114.395 240.85 114.395 242.05V258H107.845ZM148.134 258V248.3H138.434V242.65H148.134V233H153.784V242.65H163.434V248.3H153.784V258H148.134Z" fill="#1D1E20"/>
<path d="M40.72 292V284.55H43.5C44.0067 284.55 44.4533 284.643 44.84 284.83C45.2333 285.01 45.54 285.277 45.76 285.63C45.98 285.977 46.09 286.4 46.09 286.9C46.09 287.393 45.9767 287.817 45.75 288.17C45.53 288.517 45.2267 288.783 44.84 288.97C44.4533 289.157 44.0067 289.25 43.5 289.25H42.08V292H40.72ZM42.08 288.05H43.52C43.7667 288.05 43.98 288.003 44.16 287.91C44.34 287.81 44.48 287.673 44.58 287.5C44.68 287.327 44.73 287.127 44.73 286.9C44.73 286.667 44.68 286.467 44.58 286.3C44.48 286.127 44.34 285.993 44.16 285.9C43.98 285.8 43.7667 285.75 43.52 285.75H42.08V288.05ZM49.2044 292V284.55H54.1544V285.75H50.5644V287.66H53.9544V288.86H50.5644V290.8H54.1544V292H49.2044ZM60.8216 292.12C60.275 292.12 59.765 292.023 59.2916 291.83C58.8183 291.637 58.405 291.367 58.0516 291.02C57.6983 290.673 57.4216 290.267 57.2216 289.8C57.0283 289.327 56.9316 288.817 56.9316 288.27C56.9316 287.717 57.0283 287.207 57.2216 286.74C57.415 286.273 57.6883 285.867 58.0416 285.52C58.395 285.173 58.8083 284.907 59.2816 284.72C59.755 284.527 60.2683 284.43 60.8216 284.43C61.375 284.43 61.8883 284.527 62.3616 284.72C62.835 284.913 63.2483 285.183 63.6016 285.53C63.955 285.87 64.2283 286.273 64.4216 286.74C64.6216 287.207 64.7216 287.717 64.7216 288.27C64.7216 288.817 64.6216 289.327 64.4216 289.8C64.2216 290.267 63.945 290.673 63.5916 291.02C63.2383 291.367 62.825 291.637 62.3516 291.83C61.885 292.023 61.375 292.12 60.8216 292.12ZM60.8216 290.88C61.1883 290.88 61.525 290.817 61.8316 290.69C62.1383 290.557 62.405 290.373 62.6316 290.14C62.865 289.907 63.0416 289.63 63.1616 289.31C63.2883 288.99 63.3516 288.643 63.3516 288.27C63.3516 287.897 63.2883 287.553 63.1616 287.24C63.0416 286.92 62.865 286.643 62.6316 286.41C62.405 286.17 62.1383 285.987 61.8316 285.86C61.525 285.733 61.1883 285.67 60.8216 285.67C60.4616 285.67 60.1283 285.733 59.8216 285.86C59.515 285.987 59.245 286.17 59.0116 286.41C58.785 286.643 58.6083 286.92 58.4816 287.24C58.355 287.553 58.2916 287.897 58.2916 288.27C58.2916 288.643 58.355 288.99 58.4816 289.31C58.6083 289.63 58.785 289.907 59.0116 290.14C59.245 290.373 59.515 290.557 59.8216 290.69C60.1283 290.817 60.4616 290.88 60.8216 290.88ZM67.9309 292V284.55H70.7109C71.2176 284.55 71.6643 284.643 72.0509 284.83C72.4443 285.01 72.7509 285.277 72.9709 285.63C73.1909 285.977 73.3009 286.4 73.3009 286.9C73.3009 287.393 73.1876 287.817 72.9609 288.17C72.7409 288.517 72.4376 288.783 72.0509 288.97C71.6643 289.157 71.2176 289.25 70.7109 289.25H69.2909V292H67.9309ZM69.2909 288.05H70.7309C70.9776 288.05 71.1909 288.003 71.3709 287.91C71.5509 287.81 71.6909 287.673 71.7909 287.5C71.8909 287.327 71.9409 287.127 71.9409 286.9C71.9409 286.667 71.8909 286.467 71.7909 286.3C71.6909 286.127 71.5509 285.993 71.3709 285.9C71.1909 285.8 70.9776 285.75 70.7309 285.75H69.2909V288.05ZM76.4153 292V284.55H77.7753V290.8H80.9653V292H76.4153ZM83.845 292V284.55H88.795V285.75H85.205V287.66H88.595V288.86H85.205V290.8H88.795V292H83.845ZM42.04 307V300.75H40.11V299.55H45.31V300.75H43.41V307H42.04ZM48.1399 307V299.55H50.9099C51.4166 299.55 51.8633 299.643 52.2499 299.83C52.6433 300.01 52.9499 300.277 53.1699 300.63C53.3899 300.977 53.4999 301.4 53.4999 301.9C53.4999 302.413 53.3766 302.85 53.1299 303.21C52.8899 303.57 52.5633 303.837 52.1499 304.01L53.8599 307H52.3199L50.4899 303.73L51.3699 304.25H49.4999V307H48.1399ZM49.4999 303.05H50.9299C51.1766 303.05 51.3899 303.003 51.5699 302.91C51.7499 302.81 51.8899 302.673 51.9899 302.5C52.0899 302.327 52.1399 302.127 52.1399 301.9C52.1399 301.667 52.0899 301.467 51.9899 301.3C51.8899 301.127 51.7499 300.993 51.5699 300.9C51.3899 300.8 51.1766 300.75 50.9299 300.75H49.4999V303.05ZM56.1413 307L58.7113 299.55H60.4713L63.0413 307H61.5613L61.0312 305.4H58.1513L57.6113 307H56.1413ZM58.5413 304.2H60.6413L59.4013 300.49H59.7813L58.5413 304.2ZM65.8704 307V299.55H66.9304L71.0304 305.07L70.4804 305.18V299.55H71.8404V307H70.7704L66.7304 301.44L67.2304 301.33V307H65.8704ZM77.9425 307.12C77.4692 307.12 77.0292 307.033 76.6225 306.86C76.2225 306.687 75.8758 306.447 75.5825 306.14C75.2958 305.827 75.0858 305.463 74.9525 305.05L76.0825 304.56C76.2625 304.987 76.5225 305.323 76.8625 305.57C77.2025 305.81 77.5858 305.93 78.0125 305.93C78.2525 305.93 78.4592 305.893 78.6325 305.82C78.8125 305.74 78.9492 305.633 79.0425 305.5C79.1425 305.367 79.1925 305.207 79.1925 305.02C79.1925 304.8 79.1258 304.62 78.9925 304.48C78.8658 304.333 78.6725 304.22 78.4125 304.14L76.9825 303.68C76.4025 303.5 75.9658 303.23 75.6725 302.87C75.3792 302.51 75.2325 302.087 75.2325 301.6C75.2325 301.173 75.3358 300.797 75.5425 300.47C75.7558 300.143 76.0492 299.89 76.4225 299.71C76.8025 299.523 77.2358 299.43 77.7225 299.43C78.1692 299.43 78.5792 299.51 78.9525 299.67C79.3258 299.823 79.6458 300.04 79.9125 300.32C80.1858 300.593 80.3892 300.917 80.5225 301.29L79.4025 301.79C79.2558 301.417 79.0358 301.13 78.7425 300.93C78.4492 300.723 78.1092 300.62 77.7225 300.62C77.4958 300.62 77.2958 300.66 77.1225 300.74C76.9492 300.813 76.8125 300.92 76.7125 301.06C76.6192 301.193 76.5725 301.353 76.5725 301.54C76.5725 301.747 76.6392 301.93 76.7725 302.09C76.9058 302.243 77.1092 302.363 77.3825 302.45L78.7525 302.88C79.3458 303.073 79.7892 303.34 80.0825 303.68C80.3825 304.02 80.5325 304.44 80.5325 304.94C80.5325 305.367 80.4225 305.743 80.2025 306.07C79.9825 306.397 79.6792 306.653 79.2925 306.84C78.9058 307.027 78.4558 307.12 77.9425 307.12ZM83.7571 307V299.55H86.5371C87.0438 299.55 87.4904 299.643 87.8771 299.83C88.2704 300.01 88.5771 300.277 88.7971 300.63C89.0171 300.977 89.1271 301.4 89.1271 301.9C89.1271 302.393 89.0138 302.817 88.7871 303.17C88.5671 303.517 88.2638 303.783 87.8771 303.97C87.4904 304.157 87.0438 304.25 86.5371 304.25H85.1171V307H83.7571ZM85.1171 303.05H86.5571C86.8038 303.05 87.0171 303.003 87.1971 302.91C87.3771 302.81 87.5171 302.673 87.6171 302.5C87.7171 302.327 87.7671 302.127 87.7671 301.9C87.7671 301.667 87.7171 301.467 87.6171 301.3C87.5171 301.127 87.3771 300.993 87.1971 300.9C87.0171 300.8 86.8038 300.75 86.5571 300.75H85.1171V303.05ZM95.9115 307.12C95.3648 307.12 94.8548 307.023 94.3815 306.83C93.9082 306.637 93.4948 306.367 93.1415 306.02C92.7882 305.673 92.5115 305.267 92.3115 304.8C92.1182 304.327 92.0215 303.817 92.0215 303.27C92.0215 302.717 92.1182 302.207 92.3115 301.74C92.5048 301.273 92.7782 300.867 93.1315 300.52C93.4848 300.173 93.8982 299.907 94.3715 299.72C94.8448 299.527 95.3582 299.43 95.9115 299.43C96.4648 299.43 96.9782 299.527 97.4515 299.72C97.9248 299.913 98.3382 300.183 98.6915 300.53C99.0448 300.87 99.3182 301.273 99.5115 301.74C99.7115 302.207 99.8115 302.717 99.8115 303.27C99.8115 303.817 99.7115 304.327 99.5115 304.8C99.3115 305.267 99.0348 305.673 98.6815 306.02C98.3282 306.367 97.9148 306.637 97.4415 306.83C96.9748 307.023 96.4648 307.12 95.9115 307.12ZM95.9115 305.88C96.2782 305.88 96.6148 305.817 96.9215 305.69C97.2282 305.557 97.4948 305.373 97.7215 305.14C97.9548 304.907 98.1315 304.63 98.2515 304.31C98.3782 303.99 98.4415 303.643 98.4415 303.27C98.4415 302.897 98.3782 302.553 98.2515 302.24C98.1315 301.92 97.9548 301.643 97.7215 301.41C97.4948 301.17 97.2282 300.987 96.9215 300.86C96.6148 300.733 96.2782 300.67 95.9115 300.67C95.5515 300.67 95.2182 300.733 94.9115 300.86C94.6048 300.987 94.3348 301.17 94.1015 301.41C93.8748 301.643 93.6982 301.92 93.5715 302.24C93.4448 302.553 93.3815 302.897 93.3815 303.27C93.3815 303.643 93.4448 303.99 93.5715 304.31C93.6982 304.63 93.8748 304.907 94.1015 305.14C94.3348 305.373 94.6048 305.557 94.9115 305.69C95.2182 305.817 95.5515 305.88 95.9115 305.88ZM103.021 307V299.55H105.791C106.297 299.55 106.744 299.643 107.131 299.83C107.524 300.01 107.831 300.277 108.051 300.63C108.271 300.977 108.381 301.4 108.381 301.9C108.381 302.413 108.257 302.85 108.011 303.21C107.771 303.57 107.444 303.837 107.031 304.01L108.741 307H107.201L105.371 303.73L106.251 304.25H104.381V307H103.021ZM104.381 303.05H105.811C106.057 303.05 106.271 303.003 106.451 302.91C106.631 302.81 106.771 302.673 106.871 302.5C106.971 302.327 107.021 302.127 107.021 301.9C107.021 301.667 106.971 301.467 106.871 301.3C106.771 301.127 106.631 300.993 106.451 300.9C106.271 300.8 106.057 300.75 105.811 300.75H104.381V303.05ZM112.757 307V300.75H110.827V299.55H116.027V300.75H114.127V307H112.757ZM118.857 307V299.55H123.807V300.75H120.217V302.66H123.607V303.86H120.217V305.8H123.807V307H118.857ZM126.804 307V299.55H129.234C130.021 299.55 130.704 299.71 131.284 300.03C131.871 300.343 132.324 300.78 132.644 301.34C132.964 301.893 133.124 302.537 133.124 303.27C133.124 303.997 132.964 304.643 132.644 305.21C132.324 305.77 131.871 306.21 131.284 306.53C130.704 306.843 130.021 307 129.234 307H126.804ZM128.164 305.8H129.264C129.771 305.8 130.207 305.697 130.574 305.49C130.947 305.277 131.237 304.983 131.444 304.61C131.651 304.23 131.754 303.783 131.754 303.27C131.754 302.75 131.651 302.303 131.444 301.93C131.237 301.557 130.947 301.267 130.574 301.06C130.207 300.853 129.771 300.75 129.264 300.75H128.164V305.8Z" fill="black"/>
<g style="mix-blend-mode:luminosity" opacity="0.2">
<path d="M362.65 336.817C362.65 344.114 356.733 349.999 349.468 349.999C342.203 349.999 336.286 344.082 336.286 336.817C336.286 329.552 342.203 323.634 349.468 323.634C356.733 323.634 362.65 329.552 362.65 336.817Z" fill="#37474F"/>
<path d="M329.809 336.818C329.809 344.116 323.892 350 316.627 350C309.362 350 303.445 344.083 303.445 336.818C303.445 329.553 309.362 323.635 316.627 323.635C323.892 323.635 329.809 329.553 329.809 336.818Z" fill="#37474F"/>
<path d="M316.627 344.015C320.603 344.015 323.826 340.791 323.826 336.815C323.826 332.839 320.603 329.616 316.627 329.616C312.651 329.616 309.427 332.839 309.427 336.815C309.427 340.791 312.651 344.015 316.627 344.015Z" fill="#546E7A"/>
<path d="M349.435 344.015C353.411 344.015 356.634 340.791 356.634 336.815C356.634 332.839 353.411 329.616 349.435 329.616C345.459 329.616 342.236 332.839 342.236 336.815C342.236 340.791 345.459 344.015 349.435 344.015Z" fill="#546E7A"/>
<g style="mix-blend-mode:luminosity">
<path d="M694.081 219H308.87C253.708 219 209 263.708 209 318.87V341.092C209 345.859 212.846 349.705 217.613 349.705H301.046L311.795 335.372H354.334L365.083 349.705H546.644L557.393 335.372H599.931L610.681 349.705H694.114C698.881 349.705 702.727 345.859 702.727 341.092V227.613C702.727 222.846 698.881 219 694.114 219H694.081Z" fill="#108A00"/>
</g>
<path d="M347.57 219C319.641 272.319 309.485 285.015 215.541 285.015L210.463 302.788C307.961 317.006 348.416 252.854 355.187 219H347.57Z" fill="white"/>
<path d="M215.247 284.09H305.123C307.26 284.09 309.232 283.005 310.382 281.197L336.024 240.927C337.799 238.166 335.794 234.517 332.506 234.517H255.418C237.14 246.121 222.873 263.478 215.214 284.09H215.247Z" fill="#80DEEA"/>
<path d="M325.997 277.91L352.428 236.391C353.151 235.24 354.433 234.517 355.814 234.517H370.607C372.842 234.517 374.617 236.325 374.617 238.527V280.046C374.617 282.282 372.809 284.057 370.607 284.057H329.383C326.195 284.057 324.288 280.54 325.997 277.877V277.91Z" fill="#80DEEA"/>
<path d="M702.694 303.026H209.231V319.397H702.694V303.026Z" fill="#37474F"/>
<path d="M240.591 284.09H254.365L284.543 234.517H270.769L240.591 284.09Z" fill="#B2EBF2"/>
<path d="M374.617 238.527C374.617 236.292 372.809 234.517 370.606 234.517H363.933L333.722 284.09H347.496L374.617 239.579V238.527Z" fill="#B2EBF2"/>
<path d="M260.643 284.09H282.504L312.715 234.517H290.854L260.643 284.09Z" fill="#B2EBF2"/>
</g>
<path fill-rule="evenodd" clip-rule="evenodd" d="M285.081 40C283.932 40 283 40.9318 283 42.0812V67.9812C283 69.1307 283.932 70.0625 285.081 70.0625H310.981C312.131 70.0625 313.062 69.1307 313.062 67.9812V42.0812C313.062 40.9318 312.131 40 310.981 40H285.081ZM305.354 48.8646C305.354 48.226 304.836 47.7083 304.198 47.7083C303.559 47.7083 303.042 48.226 303.042 48.8646V61.1979C303.042 61.8365 303.559 62.3542 304.198 62.3542C304.836 62.3542 305.354 61.8365 305.354 61.1979V48.8646ZM298.031 52.3333C298.67 52.3333 299.188 52.851 299.188 53.4896V61.1979C299.188 61.8365 298.67 62.3542 298.031 62.3542C297.393 62.3542 296.875 61.8365 296.875 61.1979V53.4896C296.875 52.851 297.393 52.3333 298.031 52.3333ZM293.021 56.5729C293.021 55.9344 292.503 55.4167 291.865 55.4167C291.226 55.4167 290.708 55.9344 290.708 56.5729V61.1979C290.708 61.8365 291.226 62.3542 291.865 62.3542C292.503 62.3542 293.021 61.8365 293.021 61.1979V56.5729Z" fill="#108A00"/>
</g>
<defs>
<clipPath id="clip0_36_202">
<rect width="350" height="350" fill="white"/>
</clipPath>
</defs>
</svg>
