<svg width="350" height="350" viewBox="0 0 350 350" fill="none" xmlns="http://www.w3.org/2000/svg">
<g clip-path="url(#clip0_36_655)">
<rect width="350" height="350" fill="white"/>
<path d="M41.617 60V44.355H47.308C48.358 44.355 49.282 44.551 50.08 44.943C50.878 45.321 51.501 45.881 51.949 46.623C52.411 47.351 52.642 48.226 52.642 49.248C52.642 50.326 52.369 51.25 51.823 52.02C51.291 52.79 50.57 53.35 49.66 53.7L53.272 60H50.458L46.615 53.175L48.232 54.12H44.095V60H41.617ZM44.095 51.915H47.35C47.924 51.915 48.421 51.803 48.841 51.579C49.261 51.355 49.583 51.047 49.807 50.655C50.045 50.249 50.164 49.773 50.164 49.227C50.164 48.681 50.045 48.212 49.807 47.82C49.583 47.414 49.261 47.106 48.841 46.896C48.421 46.672 47.924 46.56 47.35 46.56H44.095V51.915ZM59.8245 60.252C58.6905 60.252 57.6825 59.993 56.8005 59.475C55.9325 58.943 55.2535 58.229 54.7635 57.333C54.2735 56.423 54.0285 55.408 54.0285 54.288C54.0285 53.14 54.2735 52.125 54.7635 51.243C55.2675 50.361 55.9395 49.668 56.7795 49.164C57.6195 48.646 58.5715 48.387 59.6355 48.387C60.4895 48.387 61.2525 48.534 61.9245 48.828C62.5965 49.122 63.1635 49.528 63.6255 50.046C64.0875 50.55 64.4375 51.131 64.6755 51.789C64.9275 52.447 65.0535 53.147 65.0535 53.889C65.0535 54.071 65.0465 54.26 65.0325 54.456C65.0185 54.652 64.9905 54.834 64.9485 55.002H55.8975V53.112H63.6045L62.4705 53.973C62.6105 53.287 62.5615 52.678 62.3235 52.146C62.0995 51.6 61.7495 51.173 61.2735 50.865C60.8115 50.543 60.2655 50.382 59.6355 50.382C59.0055 50.382 58.4455 50.543 57.9555 50.865C57.4655 51.173 57.0875 51.621 56.8215 52.209C56.5555 52.783 56.4505 53.483 56.5065 54.309C56.4365 55.079 56.5415 55.751 56.8215 56.325C57.1155 56.899 57.5215 57.347 58.0395 57.669C58.5715 57.991 59.1735 58.152 59.8455 58.152C60.5315 58.152 61.1125 57.998 61.5885 57.69C62.0785 57.382 62.4635 56.983 62.7435 56.493L64.6755 57.438C64.4515 57.97 64.1015 58.453 63.6255 58.887C63.1635 59.307 62.6035 59.643 61.9455 59.895C61.3015 60.133 60.5945 60.252 59.8245 60.252ZM72.6194 60.252C71.5274 60.252 70.5474 59.993 69.6794 59.475C68.8254 58.943 68.1464 58.229 67.6424 57.333C67.1524 56.437 66.9074 55.429 66.9074 54.309C66.9074 53.189 67.1594 52.181 67.6634 51.285C68.1674 50.389 68.8464 49.682 69.7004 49.164C70.5544 48.646 71.5204 48.387 72.5984 48.387C73.5084 48.387 74.3134 48.569 75.0134 48.933C75.7134 49.297 76.2664 49.801 76.6724 50.445L76.3154 50.991V44.103H78.6674V60H76.4204V57.69L76.6934 58.131C76.3014 58.817 75.7414 59.342 75.0134 59.706C74.2854 60.07 73.4874 60.252 72.6194 60.252ZM72.8504 58.047C73.5084 58.047 74.0964 57.886 74.6144 57.564C75.1464 57.242 75.5594 56.801 75.8534 56.241C76.1614 55.667 76.3154 55.023 76.3154 54.309C76.3154 53.595 76.1614 52.958 75.8534 52.398C75.5594 51.838 75.1464 51.397 74.6144 51.075C74.0964 50.753 73.5084 50.592 72.8504 50.592C72.1924 50.592 71.5974 50.753 71.0654 51.075C70.5334 51.397 70.1204 51.838 69.8264 52.398C69.5324 52.958 69.3854 53.595 69.3854 54.309C69.3854 55.023 69.5324 55.667 69.8264 56.241C70.1204 56.801 70.5264 57.242 71.0444 57.564C71.5764 57.886 72.1784 58.047 72.8504 58.047ZM85.3397 60V44.355H87.8177V57.795H94.5797V60H85.3397ZM96.429 60V48.639H98.802V60H96.429ZM96.429 47.085V44.355H98.802V47.085H96.429ZM101.576 60V48.639H103.844V50.865L103.571 50.571C103.851 49.857 104.299 49.318 104.915 48.954C105.531 48.576 106.245 48.387 107.057 48.387C107.897 48.387 108.639 48.569 109.283 48.933C109.927 49.297 110.431 49.801 110.795 50.445C111.159 51.089 111.341 51.831 111.341 52.671V60H108.989V53.301C108.989 52.727 108.884 52.244 108.674 51.852C108.464 51.446 108.163 51.138 107.771 50.928C107.393 50.704 106.959 50.592 106.469 50.592C105.979 50.592 105.538 50.704 105.146 50.928C104.768 51.138 104.474 51.446 104.264 51.852C104.054 52.258 103.949 52.741 103.949 53.301V60H101.576ZM119.215 60.252C118.081 60.252 117.073 59.993 116.191 59.475C115.323 58.943 114.644 58.229 114.154 57.333C113.664 56.423 113.419 55.408 113.419 54.288C113.419 53.14 113.664 52.125 114.154 51.243C114.658 50.361 115.33 49.668 116.17 49.164C117.01 48.646 117.962 48.387 119.026 48.387C119.88 48.387 120.643 48.534 121.315 48.828C121.987 49.122 122.554 49.528 123.016 50.046C123.478 50.55 123.828 51.131 124.066 51.789C124.318 52.447 124.444 53.147 124.444 53.889C124.444 54.071 124.437 54.26 124.423 54.456C124.409 54.652 124.381 54.834 124.339 55.002H115.288V53.112H122.995L121.861 53.973C122.001 53.287 121.952 52.678 121.714 52.146C121.49 51.6 121.14 51.173 120.664 50.865C120.202 50.543 119.656 50.382 119.026 50.382C118.396 50.382 117.836 50.543 117.346 50.865C116.856 51.173 116.478 51.621 116.212 52.209C115.946 52.783 115.841 53.483 115.897 54.309C115.827 55.079 115.932 55.751 116.212 56.325C116.506 56.899 116.912 57.347 117.43 57.669C117.962 57.991 118.564 58.152 119.236 58.152C119.922 58.152 120.503 57.998 120.979 57.69C121.469 57.382 121.854 56.983 122.134 56.493L124.066 57.438C123.842 57.97 123.492 58.453 123.016 58.887C122.554 59.307 121.994 59.643 121.336 59.895C120.692 60.133 119.985 60.252 119.215 60.252ZM41.617 83V67.355H43.927L49.807 75.503H48.652L54.427 67.355H56.737V83H54.28V70.274L55.204 70.526L49.303 78.59H49.051L43.276 70.526L44.095 70.274V83H41.617ZM63.1425 83.252C62.3725 83.252 61.6935 83.119 61.1055 82.853C60.5315 82.573 60.0835 82.195 59.7615 81.719C59.4395 81.229 59.2785 80.655 59.2785 79.997C59.2785 79.381 59.4115 78.828 59.6775 78.338C59.9575 77.848 60.3845 77.435 60.9585 77.099C61.5325 76.763 62.2535 76.525 63.1215 76.385L67.0695 75.734V77.603L63.5835 78.212C62.9535 78.324 62.4915 78.527 62.1975 78.821C61.9035 79.101 61.7565 79.465 61.7565 79.913C61.7565 80.347 61.9175 80.704 62.2395 80.984C62.5755 81.25 63.0025 81.383 63.5205 81.383C64.1645 81.383 64.7245 81.243 65.2005 80.963C65.6905 80.683 66.0685 80.312 66.3345 79.85C66.6005 79.374 66.7335 78.849 66.7335 78.275V75.356C66.7335 74.796 66.5235 74.341 66.1035 73.991C65.6975 73.627 65.1515 73.445 64.4655 73.445C63.8355 73.445 63.2825 73.613 62.8065 73.949C62.3445 74.271 62.0015 74.691 61.7775 75.209L59.8035 74.222C60.0135 73.662 60.3565 73.172 60.8325 72.752C61.3085 72.318 61.8615 71.982 62.4915 71.744C63.1355 71.506 63.8145 71.387 64.5285 71.387C65.4245 71.387 66.2155 71.555 66.9015 71.891C67.6015 72.227 68.1405 72.696 68.5185 73.298C68.9105 73.886 69.1065 74.572 69.1065 75.356V83H66.8385V80.942L67.3215 81.005C67.0555 81.467 66.7125 81.866 66.2925 82.202C65.8865 82.538 65.4175 82.797 64.8855 82.979C64.3675 83.161 63.7865 83.252 63.1425 83.252ZM76.0811 83.252C74.9191 83.252 73.8971 82.965 73.0151 82.391C72.1471 81.817 71.5381 81.047 71.1881 80.081L73.0151 79.22C73.3231 79.864 73.7431 80.375 74.2751 80.753C74.8211 81.131 75.4231 81.32 76.0811 81.32C76.6411 81.32 77.0961 81.194 77.4461 80.942C77.7961 80.69 77.9711 80.347 77.9711 79.913C77.9711 79.633 77.8941 79.409 77.7401 79.241C77.5861 79.059 77.3901 78.912 77.1521 78.8C76.9281 78.688 76.6971 78.604 76.4591 78.548L74.6741 78.044C73.6941 77.764 72.9591 77.344 72.4691 76.784C71.9931 76.21 71.7551 75.545 71.7551 74.789C71.7551 74.103 71.9301 73.508 72.2801 73.004C72.6301 72.486 73.1131 72.087 73.7291 71.807C74.3451 71.527 75.0381 71.387 75.8081 71.387C76.8441 71.387 77.7681 71.646 78.5801 72.164C79.3921 72.668 79.9661 73.375 80.3021 74.285L78.4751 75.146C78.2511 74.6 77.8941 74.166 77.4041 73.844C76.9281 73.522 76.3891 73.361 75.7871 73.361C75.2691 73.361 74.8561 73.487 74.5481 73.739C74.2401 73.977 74.0861 74.292 74.0861 74.684C74.0861 74.95 74.1561 75.174 74.2961 75.356C74.4361 75.524 74.6181 75.664 74.8421 75.776C75.0661 75.874 75.2971 75.958 75.5351 76.028L77.3831 76.574C78.3211 76.84 79.0421 77.26 79.5461 77.834C80.0501 78.394 80.3021 79.066 80.3021 79.85C80.3021 80.522 80.1201 81.117 79.7561 81.635C79.4061 82.139 78.9161 82.538 78.2861 82.832C77.6561 83.112 76.9211 83.252 76.0811 83.252ZM86.8272 83.252C85.6652 83.252 84.6432 82.965 83.7612 82.391C82.8932 81.817 82.2842 81.047 81.9342 80.081L83.7612 79.22C84.0692 79.864 84.4892 80.375 85.0212 80.753C85.5672 81.131 86.1692 81.32 86.8272 81.32C87.3872 81.32 87.8422 81.194 88.1922 80.942C88.5422 80.69 88.7172 80.347 88.7172 79.913C88.7172 79.633 88.6402 79.409 88.4862 79.241C88.3322 79.059 88.1362 78.912 87.8982 78.8C87.6742 78.688 87.4432 78.604 87.2052 78.548L85.4202 78.044C84.4402 77.764 83.7052 77.344 83.2152 76.784C82.7392 76.21 82.5012 75.545 82.5012 74.789C82.5012 74.103 82.6762 73.508 83.0262 73.004C83.3762 72.486 83.8592 72.087 84.4752 71.807C85.0912 71.527 85.7842 71.387 86.5542 71.387C87.5902 71.387 88.5142 71.646 89.3262 72.164C90.1382 72.668 90.7122 73.375 91.0482 74.285L89.2212 75.146C88.9972 74.6 88.6402 74.166 88.1502 73.844C87.6742 73.522 87.1352 73.361 86.5332 73.361C86.0152 73.361 85.6022 73.487 85.2942 73.739C84.9862 73.977 84.8322 74.292 84.8322 74.684C84.8322 74.95 84.9022 75.174 85.0422 75.356C85.1822 75.524 85.3642 75.664 85.5882 75.776C85.8122 75.874 86.0432 75.958 86.2812 76.028L88.1292 76.574C89.0672 76.84 89.7882 77.26 90.2922 77.834C90.7962 78.394 91.0482 79.066 91.0482 79.85C91.0482 80.522 90.8662 81.117 90.5022 81.635C90.1522 82.139 89.6622 82.538 89.0322 82.832C88.4022 83.112 87.6672 83.252 86.8272 83.252ZM100.047 83V69.56H95.8892V67.355H106.599V69.56H102.504V83H100.047ZM106.97 83V71.639H109.238V73.928L109.028 73.592C109.28 72.85 109.686 72.318 110.246 71.996C110.806 71.66 111.478 71.492 112.262 71.492H112.955V73.655H111.968C111.184 73.655 110.547 73.9 110.057 74.39C109.581 74.866 109.343 75.552 109.343 76.448V83H106.97ZM117.98 83.252C117.21 83.252 116.531 83.119 115.943 82.853C115.369 82.573 114.921 82.195 114.599 81.719C114.277 81.229 114.116 80.655 114.116 79.997C114.116 79.381 114.249 78.828 114.515 78.338C114.795 77.848 115.222 77.435 115.796 77.099C116.37 76.763 117.091 76.525 117.959 76.385L121.907 75.734V77.603L118.421 78.212C117.791 78.324 117.329 78.527 117.035 78.821C116.741 79.101 116.594 79.465 116.594 79.913C116.594 80.347 116.755 80.704 117.077 80.984C117.413 81.25 117.84 81.383 118.358 81.383C119.002 81.383 119.562 81.243 120.038 80.963C120.528 80.683 120.906 80.312 121.172 79.85C121.438 79.374 121.571 78.849 121.571 78.275V75.356C121.571 74.796 121.361 74.341 120.941 73.991C120.535 73.627 119.989 73.445 119.303 73.445C118.673 73.445 118.12 73.613 117.644 73.949C117.182 74.271 116.839 74.691 116.615 75.209L114.641 74.222C114.851 73.662 115.194 73.172 115.67 72.752C116.146 72.318 116.699 71.982 117.329 71.744C117.973 71.506 118.652 71.387 119.366 71.387C120.262 71.387 121.053 71.555 121.739 71.891C122.439 72.227 122.978 72.696 123.356 73.298C123.748 73.886 123.944 74.572 123.944 75.356V83H121.676V80.942L122.159 81.005C121.893 81.467 121.55 81.866 121.13 82.202C120.724 82.538 120.255 82.797 119.723 82.979C119.205 83.161 118.624 83.252 117.98 83.252ZM126.719 83V71.639H128.987V73.865L128.714 73.571C128.994 72.857 129.442 72.318 130.058 71.954C130.674 71.576 131.388 71.387 132.2 71.387C133.04 71.387 133.782 71.569 134.426 71.933C135.07 72.297 135.574 72.801 135.938 73.445C136.302 74.089 136.484 74.831 136.484 75.671V83H134.132V76.301C134.132 75.727 134.027 75.244 133.817 74.852C133.607 74.446 133.306 74.138 132.914 73.928C132.536 73.704 132.102 73.592 131.612 73.592C131.122 73.592 130.681 73.704 130.289 73.928C129.911 74.138 129.617 74.446 129.407 74.852C129.197 75.258 129.092 75.741 129.092 76.301V83H126.719ZM143.224 83.252C142.062 83.252 141.04 82.965 140.158 82.391C139.29 81.817 138.681 81.047 138.331 80.081L140.158 79.22C140.466 79.864 140.886 80.375 141.418 80.753C141.964 81.131 142.566 81.32 143.224 81.32C143.784 81.32 144.239 81.194 144.589 80.942C144.939 80.69 145.114 80.347 145.114 79.913C145.114 79.633 145.037 79.409 144.883 79.241C144.729 79.059 144.533 78.912 144.295 78.8C144.071 78.688 143.84 78.604 143.602 78.548L141.817 78.044C140.837 77.764 140.102 77.344 139.612 76.784C139.136 76.21 138.898 75.545 138.898 74.789C138.898 74.103 139.073 73.508 139.423 73.004C139.773 72.486 140.256 72.087 140.872 71.807C141.488 71.527 142.181 71.387 142.951 71.387C143.987 71.387 144.911 71.646 145.723 72.164C146.535 72.668 147.109 73.375 147.445 74.285L145.618 75.146C145.394 74.6 145.037 74.166 144.547 73.844C144.071 73.522 143.532 73.361 142.93 73.361C142.412 73.361 141.999 73.487 141.691 73.739C141.383 73.977 141.229 74.292 141.229 74.684C141.229 74.95 141.299 75.174 141.439 75.356C141.579 75.524 141.761 75.664 141.985 75.776C142.209 75.874 142.44 75.958 142.678 76.028L144.526 76.574C145.464 76.84 146.185 77.26 146.689 77.834C147.193 78.394 147.445 79.066 147.445 79.85C147.445 80.522 147.263 81.117 146.899 81.635C146.549 82.139 146.059 82.538 145.429 82.832C144.799 83.112 144.064 83.252 143.224 83.252ZM149.77 83V71.639H152.143V83H149.77ZM149.77 70.085V67.355H152.143V70.085H149.77ZM159.831 83.126C158.641 83.126 157.717 82.79 157.059 82.118C156.401 81.446 156.072 80.501 156.072 79.283V73.781H154.077V71.639H154.392C154.924 71.639 155.337 71.485 155.631 71.177C155.925 70.869 156.072 70.449 156.072 69.917V69.035H158.445V71.639H161.028V73.781H158.445V79.178C158.445 79.57 158.508 79.906 158.634 80.186C158.76 80.452 158.963 80.662 159.243 80.816C159.523 80.956 159.887 81.026 160.335 81.026C160.447 81.026 160.573 81.019 160.713 81.005C160.853 80.991 160.986 80.977 161.112 80.963V83C160.916 83.028 160.699 83.056 160.461 83.084C160.223 83.112 160.013 83.126 159.831 83.126Z" fill="black"/>
<path d="M54.85 258.6C52.8833 258.6 51 258.233 49.2 257.5C47.4333 256.767 45.9 255.733 44.6 254.4C43.3333 253.033 42.4667 251.417 42 249.55L47.9 247.45C48.4667 249.15 49.3833 250.417 50.65 251.25C51.9167 252.05 53.3167 252.45 54.85 252.45C56.1167 252.45 57.2333 252.183 58.2 251.65C59.2 251.083 59.9667 250.317 60.5 249.35C61.0333 248.35 61.3 247.2 61.3 245.9C61.3 244.6 61.0167 243.467 60.45 242.5C59.9167 241.533 59.1667 240.783 58.2 240.25C57.2333 239.683 56.1167 239.4 54.85 239.4C53.55 239.4 52.3667 239.683 51.3 240.25C50.2667 240.817 49.5167 241.633 49.05 242.7L43.5 241.45L46.45 220.75H66.75V226.5H49.15L51.7 223.55L49.6 239.15L47.65 237.55C48.5833 236.183 49.7167 235.183 51.05 234.55C52.4167 233.917 54.0667 233.6 56 233.6C58.4667 233.6 60.6 234.133 62.4 235.2C64.2333 236.267 65.65 237.717 66.65 239.55C67.65 241.383 68.15 243.5 68.15 245.9C68.15 248.3 67.5667 250.467 66.4 252.4C65.2333 254.333 63.65 255.85 61.65 256.95C59.65 258.05 57.3833 258.6 54.85 258.6ZM88.4617 258.6C85.4951 258.6 82.8951 257.8 80.6617 256.2C78.4284 254.6 76.6784 252.35 75.4117 249.45C74.1784 246.55 73.5617 243.183 73.5617 239.35C73.5617 235.483 74.1784 232.117 75.4117 229.25C76.6451 226.383 78.3784 224.15 80.6117 222.55C82.8451 220.95 85.4451 220.15 88.4117 220.15C91.4451 220.15 94.0617 220.95 96.2617 222.55C98.4951 224.15 100.245 226.4 101.512 229.3C102.778 232.167 103.412 235.517 103.412 239.35C103.412 243.183 102.778 246.55 101.512 249.45C100.278 252.317 98.5451 254.567 96.3117 256.2C94.0784 257.8 91.4617 258.6 88.4617 258.6ZM88.5117 252.4C90.2117 252.4 91.6617 251.883 92.8617 250.85C94.0617 249.783 94.9784 248.283 95.6117 246.35C96.2784 244.383 96.6117 242.05 96.6117 239.35C96.6117 236.65 96.2784 234.333 95.6117 232.4C94.9784 230.433 94.0451 228.933 92.8117 227.9C91.6117 226.867 90.1451 226.35 88.4117 226.35C86.7451 226.35 85.3117 226.867 84.1117 227.9C82.9117 228.933 81.9784 230.433 81.3117 232.4C80.6784 234.333 80.3617 236.65 80.3617 239.35C80.3617 242.017 80.6784 244.333 81.3117 246.3C81.9784 248.233 82.9117 249.733 84.1117 250.8C85.3451 251.867 86.8117 252.4 88.5117 252.4ZM123.862 258.6C120.895 258.6 118.295 257.8 116.062 256.2C113.829 254.6 112.079 252.35 110.812 249.45C109.579 246.55 108.962 243.183 108.962 239.35C108.962 235.483 109.579 232.117 110.812 229.25C112.045 226.383 113.779 224.15 116.012 222.55C118.245 220.95 120.845 220.15 123.812 220.15C126.845 220.15 129.462 220.95 131.662 222.55C133.895 224.15 135.645 226.4 136.912 229.3C138.179 232.167 138.812 235.517 138.812 239.35C138.812 243.183 138.179 246.55 136.912 249.45C135.679 252.317 133.945 254.567 131.712 256.2C129.479 257.8 126.862 258.6 123.862 258.6ZM123.912 252.4C125.612 252.4 127.062 251.883 128.262 250.85C129.462 249.783 130.379 248.283 131.012 246.35C131.679 244.383 132.012 242.05 132.012 239.35C132.012 236.65 131.679 234.333 131.012 232.4C130.379 230.433 129.445 228.933 128.212 227.9C127.012 226.867 125.545 226.35 123.812 226.35C122.145 226.35 120.712 226.867 119.512 227.9C118.312 228.933 117.379 230.433 116.712 232.4C116.079 234.333 115.762 236.65 115.762 239.35C115.762 242.017 116.079 244.333 116.712 246.3C117.379 248.233 118.312 249.733 119.512 250.8C120.745 251.867 122.212 252.4 123.912 252.4ZM145.163 258V220.75H151.963V240.15L150.113 239.5L165.963 220.75H174.513L159.663 238.35L160.063 233.55L174.963 258H166.963L156.963 241.6L151.963 247.55V258H145.163ZM189.198 258V248.3H179.498V242.65H189.198V233H194.848V242.65H204.498V248.3H194.848V258H189.198Z" fill="#1D1E20"/>
<path d="M40.72 292V284.55H43.5C44.0067 284.55 44.4533 284.643 44.84 284.83C45.2333 285.01 45.54 285.277 45.76 285.63C45.98 285.977 46.09 286.4 46.09 286.9C46.09 287.393 45.9767 287.817 45.75 288.17C45.53 288.517 45.2267 288.783 44.84 288.97C44.4533 289.157 44.0067 289.25 43.5 289.25H42.08V292H40.72ZM42.08 288.05H43.52C43.7667 288.05 43.98 288.003 44.16 287.91C44.34 287.81 44.48 287.673 44.58 287.5C44.68 287.327 44.73 287.127 44.73 286.9C44.73 286.667 44.68 286.467 44.58 286.3C44.48 286.127 44.34 285.993 44.16 285.9C43.98 285.8 43.7667 285.75 43.52 285.75H42.08V288.05ZM49.2044 292V284.55H51.9744C52.481 284.55 52.9277 284.643 53.3144 284.83C53.7077 285.01 54.0144 285.277 54.2344 285.63C54.4544 285.977 54.5644 286.4 54.5644 286.9C54.5644 287.413 54.441 287.85 54.1944 288.21C53.9544 288.57 53.6277 288.837 53.2144 289.01L54.9244 292H53.3844L51.5544 288.73L52.4344 289.25H50.5644V292H49.2044ZM50.5644 288.05H51.9944C52.241 288.05 52.4544 288.003 52.6344 287.91C52.8144 287.81 52.9544 287.673 53.0544 287.5C53.1544 287.327 53.2044 287.127 53.2044 286.9C53.2044 286.667 53.1544 286.467 53.0544 286.3C52.9544 286.127 52.8144 285.993 52.6344 285.9C52.4544 285.8 52.241 285.75 51.9944 285.75H50.5644V288.05ZM61.4857 292.12C60.939 292.12 60.429 292.023 59.9557 291.83C59.4824 291.637 59.069 291.367 58.7157 291.02C58.3624 290.673 58.0857 290.267 57.8857 289.8C57.6924 289.327 57.5957 288.817 57.5957 288.27C57.5957 287.717 57.6924 287.207 57.8857 286.74C58.079 286.273 58.3524 285.867 58.7057 285.52C59.059 285.173 59.4724 284.907 59.9457 284.72C60.419 284.527 60.9324 284.43 61.4857 284.43C62.039 284.43 62.5524 284.527 63.0257 284.72C63.499 284.913 63.9124 285.183 64.2657 285.53C64.619 285.87 64.8924 286.273 65.0857 286.74C65.2857 287.207 65.3857 287.717 65.3857 288.27C65.3857 288.817 65.2857 289.327 65.0857 289.8C64.8857 290.267 64.609 290.673 64.2557 291.02C63.9024 291.367 63.489 291.637 63.0157 291.83C62.549 292.023 62.039 292.12 61.4857 292.12ZM61.4857 290.88C61.8524 290.88 62.189 290.817 62.4957 290.69C62.8024 290.557 63.069 290.373 63.2957 290.14C63.529 289.907 63.7057 289.63 63.8257 289.31C63.9524 288.99 64.0157 288.643 64.0157 288.27C64.0157 287.897 63.9524 287.553 63.8257 287.24C63.7057 286.92 63.529 286.643 63.2957 286.41C63.069 286.17 62.8024 285.987 62.4957 285.86C62.189 285.733 61.8524 285.67 61.4857 285.67C61.1257 285.67 60.7924 285.733 60.4857 285.86C60.179 285.987 59.909 286.17 59.6757 286.41C59.449 286.643 59.2724 286.92 59.1457 287.24C59.019 287.553 58.9557 287.897 58.9557 288.27C58.9557 288.643 59.019 288.99 59.1457 289.31C59.2724 289.63 59.449 289.907 59.6757 290.14C59.909 290.373 60.179 290.557 60.4857 290.69C60.7924 290.817 61.1257 290.88 61.4857 290.88ZM68.265 292V290.75H68.695C69.015 290.75 69.2683 290.66 69.455 290.48C69.6483 290.293 69.745 290.047 69.745 289.74V284.55H71.115V289.69C71.115 290.15 71.015 290.553 70.815 290.9C70.6217 291.247 70.3417 291.517 69.975 291.71C69.615 291.903 69.1883 292 68.695 292H68.265ZM74.5208 292V284.55H79.4708V285.75H75.8808V287.66H79.2708V288.86H75.8808V290.8H79.4708V292H74.5208ZM85.968 292.12C85.4347 292.12 84.9414 292.023 84.488 291.83C84.0414 291.637 83.648 291.367 83.308 291.02C82.9747 290.673 82.7147 290.267 82.528 289.8C82.3414 289.333 82.248 288.823 82.248 288.27C82.248 287.717 82.338 287.207 82.518 286.74C82.7047 286.267 82.9647 285.86 83.298 285.52C83.638 285.173 84.0347 284.907 84.488 284.72C84.9414 284.527 85.4347 284.43 85.968 284.43C86.5014 284.43 86.978 284.52 87.398 284.7C87.8247 284.88 88.1847 285.12 88.478 285.42C88.7714 285.713 88.9814 286.037 89.108 286.39L87.888 286.96C87.748 286.587 87.5114 286.28 87.178 286.04C86.8447 285.793 86.4414 285.67 85.968 285.67C85.5014 285.67 85.088 285.78 84.728 286C84.3747 286.22 84.098 286.523 83.898 286.91C83.7047 287.297 83.608 287.75 83.608 288.27C83.608 288.79 83.7047 289.247 83.898 289.64C84.098 290.027 84.3747 290.33 84.728 290.55C85.088 290.77 85.5014 290.88 85.968 290.88C86.4414 290.88 86.8447 290.76 87.178 290.52C87.5114 290.273 87.748 289.963 87.888 289.59L89.108 290.16C88.9814 290.513 88.7714 290.84 88.478 291.14C88.1847 291.433 87.8247 291.67 87.398 291.85C86.978 292.03 86.5014 292.12 85.968 292.12ZM93.5322 292V285.75H91.6022V284.55H96.8022V285.75H94.9022V292H93.5322ZM99.6321 292V284.55H104.582V285.75H100.992V287.66H104.382V288.86H100.992V290.8H104.582V292H99.6321ZM107.579 292V284.55H110.009C110.796 284.55 111.479 284.71 112.059 285.03C112.646 285.343 113.099 285.78 113.419 286.34C113.739 286.893 113.899 287.537 113.899 288.27C113.899 288.997 113.739 289.643 113.419 290.21C113.099 290.77 112.646 291.21 112.059 291.53C111.479 291.843 110.796 292 110.009 292H107.579ZM108.939 290.8H110.039C110.546 290.8 110.983 290.697 111.349 290.49C111.723 290.277 112.013 289.983 112.219 289.61C112.426 289.23 112.529 288.783 112.529 288.27C112.529 287.75 112.426 287.303 112.219 286.93C112.013 286.557 111.723 286.267 111.349 286.06C110.983 285.853 110.546 285.75 110.039 285.75H108.939V290.8ZM40.72 307V299.55H43.5C44.0067 299.55 44.4533 299.643 44.84 299.83C45.2333 300.01 45.54 300.277 45.76 300.63C45.98 300.977 46.09 301.4 46.09 301.9C46.09 302.393 45.9767 302.817 45.75 303.17C45.53 303.517 45.2267 303.783 44.84 303.97C44.4533 304.157 44.0067 304.25 43.5 304.25H42.08V307H40.72ZM42.08 303.05H43.52C43.7667 303.05 43.98 303.003 44.16 302.91C44.34 302.81 44.48 302.673 44.58 302.5C44.68 302.327 44.73 302.127 44.73 301.9C44.73 301.667 44.68 301.467 44.58 301.3C44.48 301.127 44.34 300.993 44.16 300.9C43.98 300.8 43.7667 300.75 43.52 300.75H42.08V303.05ZM47.9987 307L50.5687 299.55H52.3287L54.8987 307H53.4187L52.8887 305.4H50.0087L49.4687 307H47.9987ZM50.3987 304.2H52.4987L51.2587 300.49H51.6387L50.3987 304.2ZM60.2902 307.12C59.8168 307.12 59.3768 307.033 58.9702 306.86C58.5702 306.687 58.2235 306.447 57.9302 306.14C57.6435 305.827 57.4335 305.463 57.3002 305.05L58.4302 304.56C58.6102 304.987 58.8702 305.323 59.2102 305.57C59.5502 305.81 59.9335 305.93 60.3602 305.93C60.6002 305.93 60.8068 305.893 60.9802 305.82C61.1602 305.74 61.2968 305.633 61.3902 305.5C61.4902 305.367 61.5402 305.207 61.5402 305.02C61.5402 304.8 61.4735 304.62 61.3402 304.48C61.2135 304.333 61.0202 304.22 60.7602 304.14L59.3302 303.68C58.7502 303.5 58.3135 303.23 58.0202 302.87C57.7268 302.51 57.5802 302.087 57.5802 301.6C57.5802 301.173 57.6835 300.797 57.8902 300.47C58.1035 300.143 58.3968 299.89 58.7702 299.71C59.1502 299.523 59.5835 299.43 60.0702 299.43C60.5168 299.43 60.9268 299.51 61.3002 299.67C61.6735 299.823 61.9935 300.04 62.2602 300.32C62.5335 300.593 62.7368 300.917 62.8702 301.29L61.7502 301.79C61.6035 301.417 61.3835 301.13 61.0902 300.93C60.7968 300.723 60.4568 300.62 60.0702 300.62C59.8435 300.62 59.6435 300.66 59.4702 300.74C59.2968 300.813 59.1602 300.92 59.0602 301.06C58.9668 301.193 58.9202 301.353 58.9202 301.54C58.9202 301.747 58.9868 301.93 59.1202 302.09C59.2535 302.243 59.4568 302.363 59.7302 302.45L61.1002 302.88C61.6935 303.073 62.1368 303.34 62.4302 303.68C62.7302 304.02 62.8802 304.44 62.8802 304.94C62.8802 305.367 62.7702 305.743 62.5502 306.07C62.3302 306.397 62.0268 306.653 61.6402 306.84C61.2535 307.027 60.8035 307.12 60.2902 307.12ZM68.7648 307.12C68.2914 307.12 67.8514 307.033 67.4448 306.86C67.0448 306.687 66.6981 306.447 66.4048 306.14C66.1181 305.827 65.9081 305.463 65.7748 305.05L66.9048 304.56C67.0848 304.987 67.3448 305.323 67.6848 305.57C68.0248 305.81 68.4081 305.93 68.8348 305.93C69.0748 305.93 69.2814 305.893 69.4548 305.82C69.6348 305.74 69.7714 305.633 69.8648 305.5C69.9648 305.367 70.0148 305.207 70.0148 305.02C70.0148 304.8 69.9481 304.62 69.8148 304.48C69.6881 304.333 69.4948 304.22 69.2348 304.14L67.8048 303.68C67.2248 303.5 66.7881 303.23 66.4948 302.87C66.2014 302.51 66.0548 302.087 66.0548 301.6C66.0548 301.173 66.1581 300.797 66.3648 300.47C66.5781 300.143 66.8714 299.89 67.2448 299.71C67.6248 299.523 68.0581 299.43 68.5448 299.43C68.9914 299.43 69.4014 299.51 69.7748 299.67C70.1481 299.823 70.4681 300.04 70.7348 300.32C71.0081 300.593 71.2114 300.917 71.3448 301.29L70.2248 301.79C70.0781 301.417 69.8581 301.13 69.5648 300.93C69.2714 300.723 68.9314 300.62 68.5448 300.62C68.3181 300.62 68.1181 300.66 67.9448 300.74C67.7714 300.813 67.6348 300.92 67.5348 301.06C67.4414 301.193 67.3948 301.353 67.3948 301.54C67.3948 301.747 67.4614 301.93 67.5948 302.09C67.7281 302.243 67.9314 302.363 68.2048 302.45L69.5748 302.88C70.1681 303.073 70.6114 303.34 70.9048 303.68C71.2048 304.02 71.3548 304.44 71.3548 304.94C71.3548 305.367 71.2448 305.743 71.0248 306.07C70.8048 306.397 70.5014 306.653 70.1148 306.84C69.7281 307.027 69.2781 307.12 68.7648 307.12ZM74.5794 307V299.55H79.5294V300.75H75.9394V302.66H79.3294V303.86H75.9394V305.8H79.5294V307H74.5794ZM82.5266 307V299.55H83.5866L87.6866 305.07L87.1366 305.18V299.55H88.4966V307H87.4266L83.3866 301.44L83.8866 301.33V307H82.5266ZM95.4688 307.12C94.9354 307.12 94.4421 307.023 93.9888 306.83C93.5354 306.637 93.1388 306.367 92.7988 306.02C92.4588 305.673 92.1921 305.267 91.9988 304.8C91.8121 304.333 91.7188 303.823 91.7188 303.27C91.7188 302.717 91.8088 302.207 91.9888 301.74C92.1754 301.267 92.4354 300.86 92.7688 300.52C93.1088 300.173 93.5054 299.907 93.9588 299.72C94.4121 299.527 94.9054 299.43 95.4388 299.43C95.9721 299.43 96.4488 299.52 96.8687 299.7C97.2954 299.88 97.6554 300.12 97.9488 300.42C98.2421 300.713 98.4521 301.037 98.5788 301.39L97.3688 301.97C97.2288 301.583 96.9921 301.27 96.6588 301.03C96.3254 300.79 95.9188 300.67 95.4388 300.67C94.9721 300.67 94.5588 300.78 94.1988 301C93.8454 301.22 93.5688 301.523 93.3688 301.91C93.1754 302.297 93.0788 302.75 93.0788 303.27C93.0788 303.79 93.1788 304.247 93.3788 304.64C93.5854 305.027 93.8688 305.33 94.2288 305.55C94.5888 305.77 95.0021 305.88 95.4688 305.88C95.8488 305.88 96.1988 305.807 96.5188 305.66C96.8388 305.507 97.0954 305.293 97.2888 305.02C97.4821 304.74 97.5788 304.41 97.5788 304.03V303.46L98.1988 304H95.4388V302.85H98.9388V303.6C98.9388 304.173 98.8421 304.68 98.6488 305.12C98.4554 305.56 98.1921 305.93 97.8588 306.23C97.5321 306.523 97.1621 306.747 96.7488 306.9C96.3354 307.047 95.9088 307.12 95.4688 307.12ZM102.015 307V299.55H106.965V300.75H103.375V302.66H106.765V303.86H103.375V305.8H106.965V307H102.015ZM109.962 307V299.55H112.732C113.239 299.55 113.686 299.643 114.072 299.83C114.466 300.01 114.772 300.277 114.992 300.63C115.212 300.977 115.322 301.4 115.322 301.9C115.322 302.413 115.199 302.85 114.952 303.21C114.712 303.57 114.386 303.837 113.972 304.01L115.682 307H114.142L112.312 303.73L113.192 304.25H111.322V307H109.962ZM111.322 303.05H112.752C112.999 303.05 113.212 303.003 113.392 302.91C113.572 302.81 113.712 302.673 113.812 302.5C113.912 302.327 113.962 302.127 113.962 301.9C113.962 301.667 113.912 301.467 113.812 301.3C113.712 301.127 113.572 300.993 113.392 300.9C113.212 300.8 112.999 300.75 112.752 300.75H111.322V303.05ZM121.234 307.12C120.76 307.12 120.32 307.033 119.914 306.86C119.514 306.687 119.167 306.447 118.874 306.14C118.587 305.827 118.377 305.463 118.244 305.05L119.374 304.56C119.554 304.987 119.814 305.323 120.154 305.57C120.494 305.81 120.877 305.93 121.304 305.93C121.544 305.93 121.75 305.893 121.924 305.82C122.104 305.74 122.24 305.633 122.334 305.5C122.434 305.367 122.484 305.207 122.484 305.02C122.484 304.8 122.417 304.62 122.284 304.48C122.157 304.333 121.964 304.22 121.704 304.14L120.274 303.68C119.694 303.5 119.257 303.23 118.964 302.87C118.67 302.51 118.524 302.087 118.524 301.6C118.524 301.173 118.627 300.797 118.834 300.47C119.047 300.143 119.34 299.89 119.714 299.71C120.094 299.523 120.527 299.43 121.014 299.43C121.46 299.43 121.87 299.51 122.244 299.67C122.617 299.823 122.937 300.04 123.204 300.32C123.477 300.593 123.68 300.917 123.814 301.29L122.694 301.79C122.547 301.417 122.327 301.13 122.034 300.93C121.74 300.723 121.4 300.62 121.014 300.62C120.787 300.62 120.587 300.66 120.414 300.74C120.24 300.813 120.104 300.92 120.004 301.06C119.91 301.193 119.864 301.353 119.864 301.54C119.864 301.747 119.93 301.93 120.064 302.09C120.197 302.243 120.4 302.363 120.674 302.45L122.044 302.88C122.637 303.073 123.08 303.34 123.374 303.68C123.674 304.02 123.824 304.44 123.824 304.94C123.824 305.367 123.714 305.743 123.494 306.07C123.274 306.397 122.97 306.653 122.584 306.84C122.197 307.027 121.747 307.12 121.234 307.12ZM130.825 307V299.55H133.255C134.042 299.55 134.725 299.71 135.305 300.03C135.892 300.343 136.345 300.78 136.665 301.34C136.985 301.893 137.145 302.537 137.145 303.27C137.145 303.997 136.985 304.643 136.665 305.21C136.345 305.77 135.892 306.21 135.305 306.53C134.725 306.843 134.042 307 133.255 307H130.825ZM132.185 305.8H133.285C133.792 305.8 134.229 305.697 134.595 305.49C134.969 305.277 135.259 304.983 135.465 304.61C135.672 304.23 135.775 303.783 135.775 303.27C135.775 302.75 135.672 302.303 135.465 301.93C135.259 301.557 134.969 301.267 134.595 301.06C134.229 300.853 133.792 300.75 133.285 300.75H132.185V305.8ZM139.315 307L141.885 299.55H143.645L146.215 307H144.735L144.205 305.4H141.325L140.785 307H139.315ZM141.715 304.2H143.815L142.575 300.49H142.955L141.715 304.2ZM149.044 307V299.55H150.404V307H149.044ZM153.837 307V299.55H155.197V305.8H158.387V307H153.837ZM162.268 307V303.7L159.758 299.55H161.308L163.228 302.79H162.678L164.588 299.55H166.138L163.638 303.69V307H162.268Z" fill="black"/>
<g style="mix-blend-mode:luminosity" opacity="0.2">
<path d="M362.65 336.817C362.65 344.114 356.733 349.999 349.468 349.999C342.203 349.999 336.286 344.082 336.286 336.817C336.286 329.552 342.203 323.634 349.468 323.634C356.733 323.634 362.65 329.552 362.65 336.817Z" fill="#37474F"/>
<path d="M329.809 336.818C329.809 344.116 323.892 350 316.627 350C309.362 350 303.445 344.083 303.445 336.818C303.445 329.553 309.362 323.635 316.627 323.635C323.892 323.635 329.809 329.553 329.809 336.818Z" fill="#37474F"/>
<path d="M316.627 344.015C320.603 344.015 323.826 340.791 323.826 336.815C323.826 332.839 320.603 329.616 316.627 329.616C312.651 329.616 309.427 332.839 309.427 336.815C309.427 340.791 312.651 344.015 316.627 344.015Z" fill="#546E7A"/>
<path d="M349.435 344.015C353.411 344.015 356.634 340.791 356.634 336.815C356.634 332.839 353.411 329.616 349.435 329.616C345.459 329.616 342.236 332.839 342.236 336.815C342.236 340.791 345.459 344.015 349.435 344.015Z" fill="#546E7A"/>
<g style="mix-blend-mode:luminosity">
<path d="M694.081 219H308.87C253.708 219 209 263.708 209 318.87V341.092C209 345.859 212.846 349.705 217.613 349.705H301.046L311.795 335.372H354.334L365.083 349.705H546.644L557.393 335.372H599.931L610.681 349.705H694.114C698.881 349.705 702.727 345.859 702.727 341.092V227.613C702.727 222.846 698.881 219 694.114 219H694.081Z" fill="#FF0000"/>
</g>
<path d="M347.57 219C319.641 272.319 309.485 285.015 215.541 285.015L210.463 302.788C307.961 317.006 348.416 252.854 355.187 219H347.57Z" fill="white"/>
<path d="M215.247 284.09H305.123C307.259 284.09 309.232 283.005 310.382 281.197L336.024 240.927C337.799 238.166 335.794 234.517 332.506 234.517H255.418C237.14 246.121 222.873 263.478 215.214 284.09H215.247Z" fill="#80DEEA"/>
<path d="M325.997 277.91L352.428 236.391C353.151 235.24 354.433 234.517 355.814 234.517H370.607C372.842 234.517 374.617 236.325 374.617 238.527V280.046C374.617 282.282 372.809 284.057 370.607 284.057H329.383C326.195 284.057 324.288 280.54 325.997 277.877V277.91Z" fill="#80DEEA"/>
<path d="M702.694 303.026H209.231V319.397H702.694V303.026Z" fill="#37474F"/>
<path d="M240.591 284.09H254.365L284.543 234.517H270.769L240.591 284.09Z" fill="#B2EBF2"/>
<path d="M374.617 238.527C374.617 236.292 372.809 234.517 370.606 234.517H363.933L333.722 284.09H347.496L374.617 239.579V238.527Z" fill="#B2EBF2"/>
<path d="M260.643 284.09H282.504L312.715 234.517H290.854L260.643 284.09Z" fill="#B2EBF2"/>
</g>
<path fill-rule="evenodd" clip-rule="evenodd" d="M285.081 40C283.932 40 283 40.9318 283 42.0812V67.9812C283 69.1307 283.932 70.0625 285.081 70.0625H310.981C312.131 70.0625 313.062 69.1307 313.062 67.9812V42.0812C313.062 40.9318 312.131 40 310.981 40H285.081ZM305.354 48.8646C305.354 48.226 304.836 47.7083 304.198 47.7083C303.559 47.7083 303.042 48.226 303.042 48.8646V61.1979C303.042 61.8365 303.559 62.3542 304.198 62.3542C304.836 62.3542 305.354 61.8365 305.354 61.1979V48.8646ZM298.031 52.3333C298.67 52.3333 299.188 52.851 299.188 53.4896V61.1979C299.188 61.8365 298.67 62.3542 298.031 62.3542C297.393 62.3542 296.875 61.8365 296.875 61.1979V53.4896C296.875 52.851 297.393 52.3333 298.031 52.3333ZM293.021 56.5729C293.021 55.9344 292.503 55.4167 291.865 55.4167C291.226 55.4167 290.708 55.9344 290.708 56.5729V61.1979C290.708 61.8365 291.226 62.3542 291.865 62.3542C292.503 62.3542 293.021 61.8365 293.021 61.1979V56.5729Z" fill="#108A00"/>
</g>
<defs>
<clipPath id="clip0_36_655">
<rect width="350" height="350" fill="white"/>
</clipPath>
</defs>
</svg>
