<svg width="350" height="350" viewBox="0 0 350 350" fill="none" xmlns="http://www.w3.org/2000/svg">
<g clip-path="url(#clip0_36_701)">
<rect width="350" height="350" fill="white"/>
<path d="M41.617 61V45.355H44.095V58.795H50.857V61H41.617ZM56.1083 61.252C55.3383 61.252 54.6593 61.119 54.0713 60.853C53.4973 60.573 53.0493 60.195 52.7273 59.719C52.4053 59.229 52.2443 58.655 52.2443 57.997C52.2443 57.381 52.3773 56.828 52.6433 56.338C52.9233 55.848 53.3503 55.435 53.9243 55.099C54.4983 54.763 55.2193 54.525 56.0873 54.385L60.0353 53.734V55.603L56.5493 56.212C55.9193 56.324 55.4573 56.527 55.1633 56.821C54.8693 57.101 54.7223 57.465 54.7223 57.913C54.7223 58.347 54.8833 58.704 55.2053 58.984C55.5413 59.25 55.9683 59.383 56.4863 59.383C57.1303 59.383 57.6903 59.243 58.1663 58.963C58.6563 58.683 59.0343 58.312 59.3003 57.85C59.5663 57.374 59.6993 56.849 59.6993 56.275V53.356C59.6993 52.796 59.4893 52.341 59.0693 51.991C58.6633 51.627 58.1173 51.445 57.4313 51.445C56.8013 51.445 56.2483 51.613 55.7723 51.949C55.3103 52.271 54.9673 52.691 54.7433 53.209L52.7693 52.222C52.9793 51.662 53.3223 51.172 53.7983 50.752C54.2743 50.318 54.8273 49.982 55.4573 49.744C56.1013 49.506 56.7803 49.387 57.4943 49.387C58.3903 49.387 59.1813 49.555 59.8673 49.891C60.5673 50.227 61.1063 50.696 61.4843 51.298C61.8763 51.886 62.0723 52.572 62.0723 53.356V61H59.8043V58.942L60.2873 59.005C60.0213 59.467 59.6783 59.866 59.2583 60.202C58.8523 60.538 58.3833 60.797 57.8513 60.979C57.3333 61.161 56.7523 61.252 56.1083 61.252ZM70.3279 65.62C69.5019 65.62 68.7389 65.487 68.0389 65.221C67.3389 64.955 66.7369 64.584 66.2329 64.108C65.7289 63.646 65.3509 63.1 65.0989 62.47L67.2829 61.567C67.4789 62.099 67.8359 62.54 68.3539 62.89C68.8859 63.24 69.5369 63.415 70.3069 63.415C70.9089 63.415 71.4479 63.296 71.9239 63.058C72.3999 62.834 72.7779 62.498 73.0579 62.05C73.3379 61.616 73.4779 61.091 73.4779 60.475V57.913L73.8979 58.396C73.5059 59.124 72.9599 59.677 72.2599 60.055C71.5739 60.433 70.7969 60.622 69.9289 60.622C68.8789 60.622 67.9339 60.377 67.0939 59.887C66.2539 59.397 65.5889 58.725 65.0989 57.871C64.6229 57.017 64.3849 56.058 64.3849 54.994C64.3849 53.916 64.6229 52.957 65.0989 52.117C65.5889 51.277 66.2469 50.612 67.0729 50.122C67.8989 49.632 68.8439 49.387 69.9079 49.387C70.7759 49.387 71.5459 49.576 72.2179 49.954C72.9039 50.318 73.4639 50.85 73.8979 51.55L73.5829 52.138V49.639H75.8299V60.475C75.8299 61.455 75.5919 62.33 75.1159 63.1C74.6539 63.884 74.0099 64.5 73.1839 64.948C72.3579 65.396 71.4059 65.62 70.3279 65.62ZM70.2019 58.417C70.8319 58.417 71.3919 58.27 71.8819 57.976C72.3719 57.668 72.7569 57.262 73.0369 56.758C73.3309 56.24 73.4779 55.659 73.4779 55.015C73.4779 54.371 73.3309 53.79 73.0369 53.272C72.7429 52.754 72.3509 52.348 71.8609 52.054C71.3709 51.746 70.8179 51.592 70.2019 51.592C69.5579 51.592 68.9839 51.746 68.4799 52.054C67.9759 52.348 67.5769 52.754 67.2829 53.272C67.0029 53.776 66.8629 54.357 66.8629 55.015C66.8629 55.645 67.0029 56.219 67.2829 56.737C67.5769 57.255 67.9759 57.668 68.4799 57.976C68.9839 58.27 69.5579 58.417 70.2019 58.417ZM84.0887 61.252C82.9967 61.252 81.9957 60.993 81.0857 60.475C80.1897 59.957 79.4757 59.25 78.9437 58.354C78.4117 57.458 78.1457 56.443 78.1457 55.309C78.1457 54.161 78.4117 53.146 78.9437 52.264C79.4757 51.368 80.1897 50.668 81.0857 50.164C81.9817 49.646 82.9827 49.387 84.0887 49.387C85.2087 49.387 86.2097 49.646 87.0917 50.164C87.9877 50.668 88.6947 51.368 89.2127 52.264C89.7447 53.146 90.0107 54.161 90.0107 55.309C90.0107 56.457 89.7447 57.479 89.2127 58.375C88.6807 59.271 87.9667 59.978 87.0707 60.496C86.1747 61 85.1807 61.252 84.0887 61.252ZM84.0887 59.047C84.7607 59.047 85.3557 58.886 85.8737 58.564C86.3917 58.242 86.7977 57.801 87.0917 57.241C87.3997 56.667 87.5537 56.023 87.5537 55.309C87.5537 54.595 87.3997 53.958 87.0917 53.398C86.7977 52.838 86.3917 52.397 85.8737 52.075C85.3557 51.753 84.7607 51.592 84.0887 51.592C83.4307 51.592 82.8357 51.753 82.3037 52.075C81.7857 52.397 81.3727 52.838 81.0647 53.398C80.7707 53.958 80.6237 54.595 80.6237 55.309C80.6237 56.023 80.7707 56.667 81.0647 57.241C81.3727 57.801 81.7857 58.242 82.3037 58.564C82.8357 58.886 83.4307 59.047 84.0887 59.047ZM96.5274 61.252C95.3654 61.252 94.3434 60.965 93.4614 60.391C92.5934 59.817 91.9844 59.047 91.6344 58.081L93.4614 57.22C93.7694 57.864 94.1894 58.375 94.7214 58.753C95.2674 59.131 95.8694 59.32 96.5274 59.32C97.0874 59.32 97.5424 59.194 97.8924 58.942C98.2424 58.69 98.4174 58.347 98.4174 57.913C98.4174 57.633 98.3404 57.409 98.1864 57.241C98.0324 57.059 97.8364 56.912 97.5984 56.8C97.3744 56.688 97.1434 56.604 96.9054 56.548L95.1204 56.044C94.1404 55.764 93.4054 55.344 92.9154 54.784C92.4394 54.21 92.2014 53.545 92.2014 52.789C92.2014 52.103 92.3764 51.508 92.7264 51.004C93.0764 50.486 93.5594 50.087 94.1754 49.807C94.7914 49.527 95.4844 49.387 96.2544 49.387C97.2904 49.387 98.2144 49.646 99.0264 50.164C99.8384 50.668 100.412 51.375 100.748 52.285L98.9214 53.146C98.6974 52.6 98.3404 52.166 97.8504 51.844C97.3744 51.522 96.8354 51.361 96.2334 51.361C95.7154 51.361 95.3024 51.487 94.9944 51.739C94.6864 51.977 94.5324 52.292 94.5324 52.684C94.5324 52.95 94.6024 53.174 94.7424 53.356C94.8824 53.524 95.0644 53.664 95.2884 53.776C95.5124 53.874 95.7434 53.958 95.9814 54.028L97.8294 54.574C98.7674 54.84 99.4884 55.26 99.9924 55.834C100.496 56.394 100.748 57.066 100.748 57.85C100.748 58.522 100.566 59.117 100.202 59.635C99.8524 60.139 99.3624 60.538 98.7324 60.832C98.1024 61.112 97.3674 61.252 96.5274 61.252ZM106.975 61V45.355H113.569C114.549 45.355 115.396 45.53 116.11 45.88C116.824 46.216 117.37 46.706 117.748 47.35C118.126 47.98 118.315 48.729 118.315 49.597C118.315 50.353 118.119 51.046 117.727 51.676C117.349 52.292 116.754 52.782 115.942 53.146V52.096C116.656 52.376 117.237 52.733 117.685 53.167C118.133 53.587 118.455 54.063 118.651 54.595C118.861 55.127 118.966 55.687 118.966 56.275C118.966 57.745 118.483 58.9 117.517 59.74C116.565 60.58 115.256 61 113.59 61H106.975ZM109.453 58.795H113.779C114.605 58.795 115.263 58.571 115.753 58.123C116.243 57.661 116.488 57.052 116.488 56.296C116.488 55.526 116.243 54.917 115.753 54.469C115.263 54.007 114.605 53.776 113.779 53.776H109.453V58.795ZM109.453 51.592H113.632C114.304 51.592 114.843 51.403 115.249 51.025C115.655 50.633 115.858 50.122 115.858 49.492C115.858 48.862 115.655 48.372 115.249 48.022C114.843 47.672 114.304 47.497 113.632 47.497H109.453V51.592ZM125.337 61.252C124.483 61.252 123.734 61.063 123.09 60.685C122.446 60.293 121.942 59.754 121.578 59.068C121.228 58.368 121.053 57.563 121.053 56.653V49.639H123.426V56.443C123.426 56.961 123.531 57.416 123.741 57.808C123.951 58.2 124.245 58.508 124.623 58.732C125.001 58.942 125.435 59.047 125.925 59.047C126.429 59.047 126.87 58.935 127.248 58.711C127.626 58.487 127.92 58.172 128.13 57.766C128.354 57.36 128.466 56.884 128.466 56.338V49.639H130.818V61H128.571V58.774L128.823 59.068C128.557 59.768 128.116 60.307 127.5 60.685C126.884 61.063 126.163 61.252 125.337 61.252ZM137.789 61.252C136.627 61.252 135.605 60.965 134.723 60.391C133.855 59.817 133.246 59.047 132.896 58.081L134.723 57.22C135.031 57.864 135.451 58.375 135.983 58.753C136.529 59.131 137.131 59.32 137.789 59.32C138.349 59.32 138.804 59.194 139.154 58.942C139.504 58.69 139.679 58.347 139.679 57.913C139.679 57.633 139.602 57.409 139.448 57.241C139.294 57.059 139.098 56.912 138.86 56.8C138.636 56.688 138.405 56.604 138.167 56.548L136.382 56.044C135.402 55.764 134.667 55.344 134.177 54.784C133.701 54.21 133.463 53.545 133.463 52.789C133.463 52.103 133.638 51.508 133.988 51.004C134.338 50.486 134.821 50.087 135.437 49.807C136.053 49.527 136.746 49.387 137.516 49.387C138.552 49.387 139.476 49.646 140.288 50.164C141.1 50.668 141.674 51.375 142.01 52.285L140.183 53.146C139.959 52.6 139.602 52.166 139.112 51.844C138.636 51.522 138.097 51.361 137.495 51.361C136.977 51.361 136.564 51.487 136.256 51.739C135.948 51.977 135.794 52.292 135.794 52.684C135.794 52.95 135.864 53.174 136.004 53.356C136.144 53.524 136.326 53.664 136.55 53.776C136.774 53.874 137.005 53.958 137.243 54.028L139.091 54.574C140.029 54.84 140.75 55.26 141.254 55.834C141.758 56.394 142.01 57.066 142.01 57.85C142.01 58.522 141.828 59.117 141.464 59.635C141.114 60.139 140.624 60.538 139.994 60.832C139.364 61.112 138.629 61.252 137.789 61.252ZM47.098 85.252C46.118 85.252 45.208 85.07 44.368 84.706C43.528 84.328 42.814 83.817 42.226 83.173C41.638 82.529 41.204 81.787 40.924 80.947L43.024 80.065C43.402 81.031 43.955 81.773 44.683 82.291C45.411 82.809 46.251 83.068 47.203 83.068C47.763 83.068 48.253 82.984 48.673 82.816C49.093 82.634 49.415 82.382 49.639 82.06C49.877 81.738 49.996 81.367 49.996 80.947C49.996 80.373 49.835 79.918 49.513 79.582C49.191 79.246 48.715 78.98 48.085 78.784L45.145 77.86C43.969 77.496 43.073 76.943 42.457 76.201C41.841 75.445 41.533 74.563 41.533 73.555C41.533 72.673 41.75 71.903 42.184 71.245C42.618 70.573 43.213 70.048 43.969 69.67C44.739 69.292 45.614 69.103 46.594 69.103C47.532 69.103 48.386 69.271 49.156 69.607C49.926 69.929 50.584 70.377 51.13 70.951C51.69 71.525 52.096 72.19 52.348 72.946L50.29 73.849C49.982 73.023 49.499 72.386 48.841 71.938C48.197 71.49 47.448 71.266 46.594 71.266C46.076 71.266 45.621 71.357 45.229 71.539C44.837 71.707 44.529 71.959 44.305 72.295C44.095 72.617 43.99 72.995 43.99 73.429C43.99 73.933 44.151 74.381 44.473 74.773C44.795 75.165 45.285 75.459 45.943 75.655L48.673 76.516C49.919 76.894 50.857 77.44 51.487 78.154C52.117 78.854 52.432 79.729 52.432 80.779C52.432 81.647 52.201 82.417 51.739 83.089C51.291 83.761 50.668 84.293 49.87 84.685C49.072 85.063 48.148 85.252 47.098 85.252ZM60.3167 85.252C59.1827 85.252 58.1747 84.993 57.2927 84.475C56.4247 83.943 55.7457 83.229 55.2557 82.333C54.7657 81.423 54.5207 80.408 54.5207 79.288C54.5207 78.14 54.7657 77.125 55.2557 76.243C55.7597 75.361 56.4317 74.668 57.2717 74.164C58.1117 73.646 59.0637 73.387 60.1277 73.387C60.9817 73.387 61.7447 73.534 62.4167 73.828C63.0887 74.122 63.6557 74.528 64.1177 75.046C64.5797 75.55 64.9297 76.131 65.1677 76.789C65.4197 77.447 65.5457 78.147 65.5457 78.889C65.5457 79.071 65.5387 79.26 65.5247 79.456C65.5107 79.652 65.4827 79.834 65.4407 80.002H56.3897V78.112H64.0967L62.9627 78.973C63.1027 78.287 63.0537 77.678 62.8157 77.146C62.5917 76.6 62.2417 76.173 61.7657 75.865C61.3037 75.543 60.7577 75.382 60.1277 75.382C59.4977 75.382 58.9377 75.543 58.4477 75.865C57.9577 76.173 57.5797 76.621 57.3137 77.209C57.0477 77.783 56.9427 78.483 56.9987 79.309C56.9287 80.079 57.0337 80.751 57.3137 81.325C57.6077 81.899 58.0137 82.347 58.5317 82.669C59.0637 82.991 59.6657 83.152 60.3377 83.152C61.0237 83.152 61.6047 82.998 62.0807 82.69C62.5707 82.382 62.9557 81.983 63.2357 81.493L65.1677 82.438C64.9437 82.97 64.5937 83.453 64.1177 83.887C63.6557 84.307 63.0957 84.643 62.4377 84.895C61.7937 85.133 61.0867 85.252 60.3167 85.252ZM67.8616 85V73.639H70.1296V75.928L69.9196 75.592C70.1716 74.85 70.5776 74.318 71.1376 73.996C71.6976 73.66 72.3696 73.492 73.1536 73.492H73.8466V75.655H72.8596C72.0756 75.655 71.4386 75.9 70.9486 76.39C70.4726 76.866 70.2346 77.552 70.2346 78.448V85H67.8616ZM78.767 85L74.315 73.639H76.898L80.321 82.9H79.376L82.799 73.639H85.403L80.93 85H78.767ZM87.0159 85V73.639H89.3889V85H87.0159ZM87.0159 72.085V69.355H89.3889V72.085H87.0159ZM97.5603 85.252C96.4263 85.252 95.4183 84.993 94.5363 84.475C93.6683 83.943 92.9753 83.229 92.4573 82.333C91.9533 81.437 91.7013 80.422 91.7013 79.288C91.7013 78.168 91.9533 77.16 92.4573 76.264C92.9613 75.368 93.6543 74.668 94.5363 74.164C95.4183 73.646 96.4263 73.387 97.5603 73.387C98.3303 73.387 99.0513 73.527 99.7233 73.807C100.395 74.073 100.976 74.444 101.466 74.92C101.97 75.396 102.341 75.949 102.579 76.579L100.5 77.545C100.262 76.957 99.8773 76.488 99.3453 76.138C98.8273 75.774 98.2323 75.592 97.5603 75.592C96.9163 75.592 96.3353 75.753 95.8173 76.075C95.3133 76.383 94.9143 76.824 94.6203 77.398C94.3263 77.958 94.1793 78.595 94.1793 79.309C94.1793 80.023 94.3263 80.667 94.6203 81.241C94.9143 81.801 95.3133 82.242 95.8173 82.564C96.3353 82.886 96.9163 83.047 97.5603 83.047C98.2463 83.047 98.8413 82.872 99.3453 82.522C99.8633 82.158 100.248 81.675 100.5 81.073L102.579 82.06C102.355 82.662 101.991 83.208 101.487 83.698C100.997 84.174 100.416 84.552 99.7443 84.832C99.0723 85.112 98.3443 85.252 97.5603 85.252ZM110.233 85.252C109.099 85.252 108.091 84.993 107.209 84.475C106.341 83.943 105.662 83.229 105.172 82.333C104.682 81.423 104.437 80.408 104.437 79.288C104.437 78.14 104.682 77.125 105.172 76.243C105.676 75.361 106.348 74.668 107.188 74.164C108.028 73.646 108.98 73.387 110.044 73.387C110.898 73.387 111.661 73.534 112.333 73.828C113.005 74.122 113.572 74.528 114.034 75.046C114.496 75.55 114.846 76.131 115.084 76.789C115.336 77.447 115.462 78.147 115.462 78.889C115.462 79.071 115.455 79.26 115.441 79.456C115.427 79.652 115.399 79.834 115.357 80.002H106.306V78.112H114.013L112.879 78.973C113.019 78.287 112.97 77.678 112.732 77.146C112.508 76.6 112.158 76.173 111.682 75.865C111.22 75.543 110.674 75.382 110.044 75.382C109.414 75.382 108.854 75.543 108.364 75.865C107.874 76.173 107.496 76.621 107.23 77.209C106.964 77.783 106.859 78.483 106.915 79.309C106.845 80.079 106.95 80.751 107.23 81.325C107.524 81.899 107.93 82.347 108.448 82.669C108.98 82.991 109.582 83.152 110.254 83.152C110.94 83.152 111.521 82.998 111.997 82.69C112.487 82.382 112.872 81.983 113.152 81.493L115.084 82.438C114.86 82.97 114.51 83.453 114.034 83.887C113.572 84.307 113.012 84.643 112.354 84.895C111.71 85.133 111.003 85.252 110.233 85.252ZM121.978 85.252C120.816 85.252 119.794 84.965 118.912 84.391C118.044 83.817 117.435 83.047 117.085 82.081L118.912 81.22C119.22 81.864 119.64 82.375 120.172 82.753C120.718 83.131 121.32 83.32 121.978 83.32C122.538 83.32 122.993 83.194 123.343 82.942C123.693 82.69 123.868 82.347 123.868 81.913C123.868 81.633 123.791 81.409 123.637 81.241C123.483 81.059 123.287 80.912 123.049 80.8C122.825 80.688 122.594 80.604 122.356 80.548L120.571 80.044C119.591 79.764 118.856 79.344 118.366 78.784C117.89 78.21 117.652 77.545 117.652 76.789C117.652 76.103 117.827 75.508 118.177 75.004C118.527 74.486 119.01 74.087 119.626 73.807C120.242 73.527 120.935 73.387 121.705 73.387C122.741 73.387 123.665 73.646 124.477 74.164C125.289 74.668 125.863 75.375 126.199 76.285L124.372 77.146C124.148 76.6 123.791 76.166 123.301 75.844C122.825 75.522 122.286 75.361 121.684 75.361C121.166 75.361 120.753 75.487 120.445 75.739C120.137 75.977 119.983 76.292 119.983 76.684C119.983 76.95 120.053 77.174 120.193 77.356C120.333 77.524 120.515 77.664 120.739 77.776C120.963 77.874 121.194 77.958 121.432 78.028L123.28 78.574C124.218 78.84 124.939 79.26 125.443 79.834C125.947 80.394 126.199 81.066 126.199 81.85C126.199 82.522 126.017 83.117 125.653 83.635C125.303 84.139 124.813 84.538 124.183 84.832C123.553 85.112 122.818 85.252 121.978 85.252ZM132.426 85V69.355H134.904V82.795H141.666V85H132.426ZM143.515 85V73.639H145.888V85H143.515ZM143.515 72.085V69.355H145.888V72.085H143.515ZM148.662 85V73.639H150.93V76.096L150.636 75.718C150.874 74.948 151.308 74.367 151.938 73.975C152.568 73.583 153.289 73.387 154.101 73.387C155.011 73.387 155.816 73.632 156.516 74.122C157.23 74.598 157.706 75.235 157.944 76.033L157.272 76.096C157.608 75.186 158.119 74.507 158.805 74.059C159.505 73.611 160.303 73.387 161.199 73.387C161.983 73.387 162.69 73.569 163.32 73.933C163.964 74.297 164.475 74.801 164.853 75.445C165.231 76.089 165.42 76.824 165.42 77.65V85H163.047V78.301C163.047 77.727 162.942 77.244 162.732 76.852C162.536 76.446 162.256 76.138 161.892 75.928C161.542 75.704 161.129 75.592 160.653 75.592C160.177 75.592 159.757 75.704 159.393 75.928C159.029 76.138 158.742 76.446 158.532 76.852C158.322 77.258 158.217 77.741 158.217 78.301V85H155.865V78.301C155.865 77.727 155.76 77.244 155.55 76.852C155.354 76.446 155.074 76.138 154.71 75.928C154.36 75.704 153.94 75.592 153.45 75.592C152.974 75.592 152.554 75.704 152.19 75.928C151.826 76.138 151.539 76.446 151.329 76.852C151.133 77.258 151.035 77.741 151.035 78.301V85H148.662ZM167.96 85V73.639H170.333V85H167.96ZM167.96 72.085V69.355H170.333V72.085H167.96ZM178.022 85.126C176.832 85.126 175.908 84.79 175.25 84.118C174.592 83.446 174.263 82.501 174.263 81.283V75.781H172.268V73.639H172.583C173.115 73.639 173.528 73.485 173.822 73.177C174.116 72.869 174.263 72.449 174.263 71.917V71.035H176.636V73.639H179.219V75.781H176.636V81.178C176.636 81.57 176.699 81.906 176.825 82.186C176.951 82.452 177.154 82.662 177.434 82.816C177.714 82.956 178.078 83.026 178.526 83.026C178.638 83.026 178.764 83.019 178.904 83.005C179.044 82.991 179.177 82.977 179.303 82.963V85C179.107 85.028 178.89 85.056 178.652 85.084C178.414 85.112 178.204 85.126 178.022 85.126ZM186.747 85.252C185.613 85.252 184.605 84.993 183.723 84.475C182.855 83.943 182.176 83.229 181.686 82.333C181.196 81.423 180.951 80.408 180.951 79.288C180.951 78.14 181.196 77.125 181.686 76.243C182.19 75.361 182.862 74.668 183.702 74.164C184.542 73.646 185.494 73.387 186.558 73.387C187.412 73.387 188.175 73.534 188.847 73.828C189.519 74.122 190.086 74.528 190.548 75.046C191.01 75.55 191.36 76.131 191.598 76.789C191.85 77.447 191.976 78.147 191.976 78.889C191.976 79.071 191.969 79.26 191.955 79.456C191.941 79.652 191.913 79.834 191.871 80.002H182.82V78.112H190.527L189.393 78.973C189.533 78.287 189.484 77.678 189.246 77.146C189.022 76.6 188.672 76.173 188.196 75.865C187.734 75.543 187.188 75.382 186.558 75.382C185.928 75.382 185.368 75.543 184.878 75.865C184.388 76.173 184.01 76.621 183.744 77.209C183.478 77.783 183.373 78.483 183.429 79.309C183.359 80.079 183.464 80.751 183.744 81.325C184.038 81.899 184.444 82.347 184.962 82.669C185.494 82.991 186.096 83.152 186.768 83.152C187.454 83.152 188.035 82.998 188.511 82.69C189.001 82.382 189.386 81.983 189.666 81.493L191.598 82.438C191.374 82.97 191.024 83.453 190.548 83.887C190.086 84.307 189.526 84.643 188.868 84.895C188.224 85.133 187.517 85.252 186.747 85.252ZM199.542 85.252C198.45 85.252 197.47 84.993 196.602 84.475C195.748 83.943 195.069 83.229 194.565 82.333C194.075 81.437 193.83 80.429 193.83 79.309C193.83 78.189 194.082 77.181 194.586 76.285C195.09 75.389 195.769 74.682 196.623 74.164C197.477 73.646 198.443 73.387 199.521 73.387C200.431 73.387 201.236 73.569 201.936 73.933C202.636 74.297 203.189 74.801 203.595 75.445L203.238 75.991V69.103H205.59V85H203.343V82.69L203.616 83.131C203.224 83.817 202.664 84.342 201.936 84.706C201.208 85.07 200.41 85.252 199.542 85.252ZM199.773 83.047C200.431 83.047 201.019 82.886 201.537 82.564C202.069 82.242 202.482 81.801 202.776 81.241C203.084 80.667 203.238 80.023 203.238 79.309C203.238 78.595 203.084 77.958 202.776 77.398C202.482 76.838 202.069 76.397 201.537 76.075C201.019 75.753 200.431 75.592 199.773 75.592C199.115 75.592 198.52 75.753 197.988 76.075C197.456 76.397 197.043 76.838 196.749 77.398C196.455 77.958 196.308 78.595 196.308 79.309C196.308 80.023 196.455 80.667 196.749 81.241C197.043 81.801 197.449 82.242 197.967 82.564C198.499 82.886 199.101 83.047 199.773 83.047ZM44.725 112.36C43.577 111.016 42.709 109.546 42.121 107.95C41.533 106.354 41.239 104.653 41.239 102.847C41.239 101.027 41.533 99.319 42.121 97.723C42.709 96.127 43.577 94.671 44.725 93.355H46.72C45.726 94.825 44.97 96.358 44.452 97.954C43.948 99.536 43.696 101.167 43.696 102.847C43.696 104.513 43.948 106.151 44.452 107.761C44.97 109.357 45.726 110.89 46.72 112.36H44.725ZM48.9793 109V93.355H51.4573V106.795H58.2193V109H48.9793ZM60.2996 109V93.355H66.8936C67.8736 93.355 68.7206 93.53 69.4346 93.88C70.1486 94.216 70.6946 94.706 71.0726 95.35C71.4506 95.98 71.6396 96.729 71.6396 97.597C71.6396 98.353 71.4436 99.046 71.0516 99.676C70.6736 100.292 70.0786 100.782 69.2666 101.146V100.096C69.9806 100.376 70.5616 100.733 71.0096 101.167C71.4576 101.587 71.7796 102.063 71.9756 102.595C72.1856 103.127 72.2906 103.687 72.2906 104.275C72.2906 105.745 71.8076 106.9 70.8416 107.74C69.8896 108.58 68.5806 109 66.9146 109H60.2996ZM62.7776 106.795H67.1036C67.9296 106.795 68.5876 106.571 69.0776 106.123C69.5676 105.661 69.8126 105.052 69.8126 104.296C69.8126 103.526 69.5676 102.917 69.0776 102.469C68.5876 102.007 67.9296 101.776 67.1036 101.776H62.7776V106.795ZM62.7776 99.592H66.9566C67.6286 99.592 68.1676 99.403 68.5736 99.025C68.9796 98.633 69.1826 98.122 69.1826 97.492C69.1826 96.862 68.9796 96.372 68.5736 96.022C68.1676 95.672 67.6286 95.497 66.9566 95.497H62.7776V99.592ZM80.3207 109.252C79.3407 109.252 78.4307 109.07 77.5907 108.706C76.7507 108.328 76.0367 107.817 75.4487 107.173C74.8607 106.529 74.4267 105.787 74.1467 104.947L76.2467 104.065C76.6247 105.031 77.1777 105.773 77.9057 106.291C78.6337 106.809 79.4737 107.068 80.4257 107.068C80.9857 107.068 81.4757 106.984 81.8957 106.816C82.3157 106.634 82.6377 106.382 82.8617 106.06C83.0997 105.738 83.2187 105.367 83.2187 104.947C83.2187 104.373 83.0577 103.918 82.7357 103.582C82.4137 103.246 81.9377 102.98 81.3077 102.784L78.3677 101.86C77.1917 101.496 76.2957 100.943 75.6797 100.201C75.0637 99.445 74.7557 98.563 74.7557 97.555C74.7557 96.673 74.9727 95.903 75.4067 95.245C75.8407 94.573 76.4357 94.048 77.1917 93.67C77.9617 93.292 78.8367 93.103 79.8167 93.103C80.7547 93.103 81.6087 93.271 82.3787 93.607C83.1487 93.929 83.8067 94.377 84.3527 94.951C84.9127 95.525 85.3187 96.19 85.5707 96.946L83.5127 97.849C83.2047 97.023 82.7217 96.386 82.0637 95.938C81.4197 95.49 80.6707 95.266 79.8167 95.266C79.2987 95.266 78.8437 95.357 78.4517 95.539C78.0597 95.707 77.7517 95.959 77.5277 96.295C77.3177 96.617 77.2127 96.995 77.2127 97.429C77.2127 97.933 77.3737 98.381 77.6957 98.773C78.0177 99.165 78.5077 99.459 79.1657 99.655L81.8957 100.516C83.1417 100.894 84.0797 101.44 84.7097 102.154C85.3397 102.854 85.6547 103.729 85.6547 104.779C85.6547 105.647 85.4237 106.417 84.9617 107.089C84.5137 107.761 83.8907 108.293 83.0927 108.685C82.2947 109.063 81.3707 109.252 80.3207 109.252ZM88.4363 109V93.355H90.9143V106.795H97.6763V109H88.4363ZM98.7906 112.36C99.7986 110.89 100.555 109.357 101.059 107.761C101.563 106.151 101.815 104.513 101.815 102.847C101.815 101.167 101.563 99.536 101.059 97.954C100.555 96.358 99.7986 94.825 98.7906 93.355H100.786C101.948 94.671 102.823 96.127 103.411 97.723C103.999 99.319 104.293 101.027 104.293 102.847C104.293 104.653 103.999 106.354 103.411 107.95C102.823 109.546 101.948 111.016 100.786 112.36H98.7906Z" fill="black"/>
<path d="M54.85 258.6C52.8833 258.6 51 258.233 49.2 257.5C47.4333 256.767 45.9 255.733 44.6 254.4C43.3333 253.033 42.4667 251.417 42 249.55L47.9 247.45C48.4667 249.15 49.3833 250.417 50.65 251.25C51.9167 252.05 53.3167 252.45 54.85 252.45C56.1167 252.45 57.2333 252.183 58.2 251.65C59.2 251.083 59.9667 250.317 60.5 249.35C61.0333 248.35 61.3 247.2 61.3 245.9C61.3 244.6 61.0167 243.467 60.45 242.5C59.9167 241.533 59.1667 240.783 58.2 240.25C57.2333 239.683 56.1167 239.4 54.85 239.4C53.55 239.4 52.3667 239.683 51.3 240.25C50.2667 240.817 49.5167 241.633 49.05 242.7L43.5 241.45L46.45 220.75H66.75V226.5H49.15L51.7 223.55L49.6 239.15L47.65 237.55C48.5833 236.183 49.7167 235.183 51.05 234.55C52.4167 233.917 54.0667 233.6 56 233.6C58.4667 233.6 60.6 234.133 62.4 235.2C64.2333 236.267 65.65 237.717 66.65 239.55C67.65 241.383 68.15 243.5 68.15 245.9C68.15 248.3 67.5667 250.467 66.4 252.4C65.2333 254.333 63.65 255.85 61.65 256.95C59.65 258.05 57.3833 258.6 54.85 258.6ZM79.4117 258V226.55H72.2117V220.75H86.2117V258H79.4117ZM94.5277 258V220.75H101.028L114.978 239.7H111.878L125.528 220.75H132.028V258H125.178V228.5L127.828 229.15L113.678 248H112.878L99.0777 229.15L101.328 228.5V258H94.5277ZM138.607 258V230.8H144.757V236.15L144.257 235.2C144.89 233.567 145.923 232.333 147.357 231.5C148.823 230.633 150.523 230.2 152.457 230.2C154.457 230.2 156.223 230.633 157.757 231.5C159.323 232.367 160.54 233.583 161.407 235.15C162.273 236.683 162.707 238.467 162.707 240.5V258H156.157V242.05C156.157 240.85 155.923 239.817 155.457 238.95C154.99 238.083 154.34 237.417 153.507 236.95C152.707 236.45 151.757 236.2 150.657 236.2C149.59 236.2 148.64 236.45 147.807 236.95C146.973 237.417 146.323 238.083 145.857 238.95C145.39 239.817 145.157 240.85 145.157 242.05V258H138.607ZM178.895 258V248.3H169.195V242.65H178.895V233H184.545V242.65H194.195V248.3H184.545V258H178.895Z" fill="#1D1E20"/>
<path d="M40.72 292V284.55H43.5C44.0067 284.55 44.4533 284.643 44.84 284.83C45.2333 285.01 45.54 285.277 45.76 285.63C45.98 285.977 46.09 286.4 46.09 286.9C46.09 287.393 45.9767 287.817 45.75 288.17C45.53 288.517 45.2267 288.783 44.84 288.97C44.4533 289.157 44.0067 289.25 43.5 289.25H42.08V292H40.72ZM42.08 288.05H43.52C43.7667 288.05 43.98 288.003 44.16 287.91C44.34 287.81 44.48 287.673 44.58 287.5C44.68 287.327 44.73 287.127 44.73 286.9C44.73 286.667 44.68 286.467 44.58 286.3C44.48 286.127 44.34 285.993 44.16 285.9C43.98 285.8 43.7667 285.75 43.52 285.75H42.08V288.05ZM49.2044 292V284.55H54.1544V285.75H50.5644V287.66H53.9544V288.86H50.5644V290.8H54.1544V292H49.2044ZM60.8216 292.12C60.275 292.12 59.765 292.023 59.2916 291.83C58.8183 291.637 58.405 291.367 58.0516 291.02C57.6983 290.673 57.4216 290.267 57.2216 289.8C57.0283 289.327 56.9316 288.817 56.9316 288.27C56.9316 287.717 57.0283 287.207 57.2216 286.74C57.415 286.273 57.6883 285.867 58.0416 285.52C58.395 285.173 58.8083 284.907 59.2816 284.72C59.755 284.527 60.2683 284.43 60.8216 284.43C61.375 284.43 61.8883 284.527 62.3616 284.72C62.835 284.913 63.2483 285.183 63.6016 285.53C63.955 285.87 64.2283 286.273 64.4216 286.74C64.6216 287.207 64.7216 287.717 64.7216 288.27C64.7216 288.817 64.6216 289.327 64.4216 289.8C64.2216 290.267 63.945 290.673 63.5916 291.02C63.2383 291.367 62.825 291.637 62.3516 291.83C61.885 292.023 61.375 292.12 60.8216 292.12ZM60.8216 290.88C61.1883 290.88 61.525 290.817 61.8316 290.69C62.1383 290.557 62.405 290.373 62.6316 290.14C62.865 289.907 63.0416 289.63 63.1616 289.31C63.2883 288.99 63.3516 288.643 63.3516 288.27C63.3516 287.897 63.2883 287.553 63.1616 287.24C63.0416 286.92 62.865 286.643 62.6316 286.41C62.405 286.17 62.1383 285.987 61.8316 285.86C61.525 285.733 61.1883 285.67 60.8216 285.67C60.4616 285.67 60.1283 285.733 59.8216 285.86C59.515 285.987 59.245 286.17 59.0116 286.41C58.785 286.643 58.6083 286.92 58.4816 287.24C58.355 287.553 58.2916 287.897 58.2916 288.27C58.2916 288.643 58.355 288.99 58.4816 289.31C58.6083 289.63 58.785 289.907 59.0116 290.14C59.245 290.373 59.515 290.557 59.8216 290.69C60.1283 290.817 60.4616 290.88 60.8216 290.88ZM67.9309 292V284.55H70.7109C71.2176 284.55 71.6643 284.643 72.0509 284.83C72.4443 285.01 72.7509 285.277 72.9709 285.63C73.1909 285.977 73.3009 286.4 73.3009 286.9C73.3009 287.393 73.1876 287.817 72.9609 288.17C72.7409 288.517 72.4376 288.783 72.0509 288.97C71.6643 289.157 71.2176 289.25 70.7109 289.25H69.2909V292H67.9309ZM69.2909 288.05H70.7309C70.9776 288.05 71.1909 288.003 71.3709 287.91C71.5509 287.81 71.6909 287.673 71.7909 287.5C71.8909 287.327 71.9409 287.127 71.9409 286.9C71.9409 286.667 71.8909 286.467 71.7909 286.3C71.6909 286.127 71.5509 285.993 71.3709 285.9C71.1909 285.8 70.9776 285.75 70.7309 285.75H69.2909V288.05ZM76.4153 292V284.55H77.7753V290.8H80.9653V292H76.4153ZM83.845 292V284.55H88.795V285.75H85.205V287.66H88.595V288.86H85.205V290.8H88.795V292H83.845ZM96.8896 292V285.75H94.9596V284.55H100.16V285.75H98.2596V292H96.8896ZM102.99 292V284.55H105.76C106.266 284.55 106.713 284.643 107.1 284.83C107.493 285.01 107.8 285.277 108.02 285.63C108.24 285.977 108.35 286.4 108.35 286.9C108.35 287.413 108.226 287.85 107.98 288.21C107.74 288.57 107.413 288.837 107 289.01L108.71 292H107.17L105.34 288.73L106.22 289.25H104.35V292H102.99ZM104.35 288.05H105.78C106.026 288.05 106.24 288.003 106.42 287.91C106.6 287.81 106.74 287.673 106.84 287.5C106.94 287.327 106.99 287.127 106.99 286.9C106.99 286.667 106.94 286.467 106.84 286.3C106.74 286.127 106.6 285.993 106.42 285.9C106.24 285.8 106.026 285.75 105.78 285.75H104.35V288.05ZM110.991 292L113.561 284.55H115.321L117.891 292H116.411L115.881 290.4H113.001L112.461 292H110.991ZM113.391 289.2H115.491L114.251 285.49H114.631L113.391 289.2ZM120.72 292V284.55H121.78L125.88 290.07L125.33 290.18V284.55H126.69V292H125.62L121.58 286.44L122.08 286.33V292H120.72ZM132.792 292.12C132.319 292.12 131.879 292.033 131.472 291.86C131.072 291.687 130.725 291.447 130.432 291.14C130.145 290.827 129.935 290.463 129.802 290.05L130.932 289.56C131.112 289.987 131.372 290.323 131.712 290.57C132.052 290.81 132.435 290.93 132.862 290.93C133.102 290.93 133.309 290.893 133.482 290.82C133.662 290.74 133.799 290.633 133.892 290.5C133.992 290.367 134.042 290.207 134.042 290.02C134.042 289.8 133.975 289.62 133.842 289.48C133.715 289.333 133.522 289.22 133.262 289.14L131.832 288.68C131.252 288.5 130.815 288.23 130.522 287.87C130.229 287.51 130.082 287.087 130.082 286.6C130.082 286.173 130.185 285.797 130.392 285.47C130.605 285.143 130.899 284.89 131.272 284.71C131.652 284.523 132.085 284.43 132.572 284.43C133.019 284.43 133.429 284.51 133.802 284.67C134.175 284.823 134.495 285.04 134.762 285.32C135.035 285.593 135.239 285.917 135.372 286.29L134.252 286.79C134.105 286.417 133.885 286.13 133.592 285.93C133.299 285.723 132.959 285.62 132.572 285.62C132.345 285.62 132.145 285.66 131.972 285.74C131.799 285.813 131.662 285.92 131.562 286.06C131.469 286.193 131.422 286.353 131.422 286.54C131.422 286.747 131.489 286.93 131.622 287.09C131.755 287.243 131.959 287.363 132.232 287.45L133.602 287.88C134.195 288.073 134.639 288.34 134.932 288.68C135.232 289.02 135.382 289.44 135.382 289.94C135.382 290.367 135.272 290.743 135.052 291.07C134.832 291.397 134.529 291.653 134.142 291.84C133.755 292.027 133.305 292.12 132.792 292.12ZM138.607 292V284.55H141.387C141.893 284.55 142.34 284.643 142.727 284.83C143.12 285.01 143.427 285.277 143.647 285.63C143.867 285.977 143.977 286.4 143.977 286.9C143.977 287.393 143.863 287.817 143.637 288.17C143.417 288.517 143.113 288.783 142.727 288.97C142.34 289.157 141.893 289.25 141.387 289.25H139.967V292H138.607ZM139.967 288.05H141.407C141.653 288.05 141.867 288.003 142.047 287.91C142.227 287.81 142.367 287.673 142.467 287.5C142.567 287.327 142.617 287.127 142.617 286.9C142.617 286.667 142.567 286.467 142.467 286.3C142.367 286.127 142.227 285.993 142.047 285.9C141.867 285.8 141.653 285.75 141.407 285.75H139.967V288.05ZM150.761 292.12C150.214 292.12 149.704 292.023 149.231 291.83C148.758 291.637 148.344 291.367 147.991 291.02C147.638 290.673 147.361 290.267 147.161 289.8C146.968 289.327 146.871 288.817 146.871 288.27C146.871 287.717 146.968 287.207 147.161 286.74C147.354 286.273 147.628 285.867 147.981 285.52C148.334 285.173 148.748 284.907 149.221 284.72C149.694 284.527 150.208 284.43 150.761 284.43C151.314 284.43 151.828 284.527 152.301 284.72C152.774 284.913 153.188 285.183 153.541 285.53C153.894 285.87 154.168 286.273 154.361 286.74C154.561 287.207 154.661 287.717 154.661 288.27C154.661 288.817 154.561 289.327 154.361 289.8C154.161 290.267 153.884 290.673 153.531 291.02C153.178 291.367 152.764 291.637 152.291 291.83C151.824 292.023 151.314 292.12 150.761 292.12ZM150.761 290.88C151.128 290.88 151.464 290.817 151.771 290.69C152.078 290.557 152.344 290.373 152.571 290.14C152.804 289.907 152.981 289.63 153.101 289.31C153.228 288.99 153.291 288.643 153.291 288.27C153.291 287.897 153.228 287.553 153.101 287.24C152.981 286.92 152.804 286.643 152.571 286.41C152.344 286.17 152.078 285.987 151.771 285.86C151.464 285.733 151.128 285.67 150.761 285.67C150.401 285.67 150.068 285.733 149.761 285.86C149.454 285.987 149.184 286.17 148.951 286.41C148.724 286.643 148.548 286.92 148.421 287.24C148.294 287.553 148.231 287.897 148.231 288.27C148.231 288.643 148.294 288.99 148.421 289.31C148.548 289.63 148.724 289.907 148.951 290.14C149.184 290.373 149.454 290.557 149.761 290.69C150.068 290.817 150.401 290.88 150.761 290.88ZM157.87 292V284.55H160.64C161.147 284.55 161.594 284.643 161.98 284.83C162.374 285.01 162.68 285.277 162.9 285.63C163.12 285.977 163.23 286.4 163.23 286.9C163.23 287.413 163.107 287.85 162.86 288.21C162.62 288.57 162.294 288.837 161.88 289.01L163.59 292H162.05L160.22 288.73L161.1 289.25H159.23V292H157.87ZM159.23 288.05H160.66C160.907 288.05 161.12 288.003 161.3 287.91C161.48 287.81 161.62 287.673 161.72 287.5C161.82 287.327 161.87 287.127 161.87 286.9C161.87 286.667 161.82 286.467 161.72 286.3C161.62 286.127 161.48 285.993 161.3 285.9C161.12 285.8 160.907 285.75 160.66 285.75H159.23V288.05ZM167.606 292V285.75H165.676V284.55H170.876V285.75H168.976V292H167.606ZM173.706 292V284.55H178.656V285.75H175.066V287.66H178.456V288.86H175.066V290.8H178.656V292H173.706ZM181.654 292V284.55H184.084C184.87 284.55 185.554 284.71 186.134 285.03C186.72 285.343 187.174 285.78 187.494 286.34C187.814 286.893 187.974 287.537 187.974 288.27C187.974 288.997 187.814 289.643 187.494 290.21C187.174 290.77 186.72 291.21 186.134 291.53C185.554 291.843 184.87 292 184.084 292H181.654ZM183.014 290.8H184.114C184.62 290.8 185.057 290.697 185.424 290.49C185.797 290.277 186.087 289.983 186.294 289.61C186.5 289.23 186.604 288.783 186.604 288.27C186.604 287.75 186.5 287.303 186.294 286.93C186.087 286.557 185.797 286.267 185.424 286.06C185.057 285.853 184.62 285.75 184.114 285.75H183.014V290.8ZM43.38 307.12C42.9067 307.12 42.4667 307.033 42.06 306.86C41.66 306.687 41.3133 306.447 41.02 306.14C40.7333 305.827 40.5233 305.463 40.39 305.05L41.52 304.56C41.7 304.987 41.96 305.323 42.3 305.57C42.64 305.81 43.0233 305.93 43.45 305.93C43.69 305.93 43.8967 305.893 44.07 305.82C44.25 305.74 44.3867 305.633 44.48 305.5C44.58 305.367 44.63 305.207 44.63 305.02C44.63 304.8 44.5633 304.62 44.43 304.48C44.3033 304.333 44.11 304.22 43.85 304.14L42.42 303.68C41.84 303.5 41.4033 303.23 41.11 302.87C40.8167 302.51 40.67 302.087 40.67 301.6C40.67 301.173 40.7733 300.797 40.98 300.47C41.1933 300.143 41.4867 299.89 41.86 299.71C42.24 299.523 42.6733 299.43 43.16 299.43C43.6067 299.43 44.0167 299.51 44.39 299.67C44.7633 299.823 45.0833 300.04 45.35 300.32C45.6233 300.593 45.8267 300.917 45.96 301.29L44.84 301.79C44.6933 301.417 44.4733 301.13 44.18 300.93C43.8867 300.723 43.5467 300.62 43.16 300.62C42.9333 300.62 42.7333 300.66 42.56 300.74C42.3867 300.813 42.25 300.92 42.15 301.06C42.0567 301.193 42.01 301.353 42.01 301.54C42.01 301.747 42.0767 301.93 42.21 302.09C42.3433 302.243 42.5467 302.363 42.82 302.45L44.19 302.88C44.7833 303.073 45.2267 303.34 45.52 303.68C45.82 304.02 45.97 304.44 45.97 304.94C45.97 305.367 45.86 305.743 45.64 306.07C45.42 306.397 45.1167 306.653 44.73 306.84C44.3433 307.027 43.8933 307.12 43.38 307.12ZM49.1946 307V299.55H50.5546V307H49.1946ZM53.9876 307V299.55H55.0476L59.1476 305.07L58.5976 305.18V299.55H59.9576V307H58.8876L54.8476 301.44L55.3476 301.33V307H53.9876ZM66.8997 307.12C66.3664 307.12 65.873 307.023 65.4197 306.83C64.973 306.637 64.5797 306.367 64.2397 306.02C63.9064 305.673 63.6464 305.267 63.4597 304.8C63.273 304.333 63.1797 303.823 63.1797 303.27C63.1797 302.717 63.2697 302.207 63.4497 301.74C63.6364 301.267 63.8964 300.86 64.2297 300.52C64.5697 300.173 64.9664 299.907 65.4197 299.72C65.873 299.527 66.3664 299.43 66.8997 299.43C67.433 299.43 67.9097 299.52 68.3297 299.7C68.7564 299.88 69.1164 300.12 69.4097 300.42C69.703 300.713 69.913 301.037 70.0397 301.39L68.8197 301.96C68.6797 301.587 68.443 301.28 68.1097 301.04C67.7764 300.793 67.373 300.67 66.8997 300.67C66.433 300.67 66.0197 300.78 65.6597 301C65.3064 301.22 65.0297 301.523 64.8297 301.91C64.6364 302.297 64.5397 302.75 64.5397 303.27C64.5397 303.79 64.6364 304.247 64.8297 304.64C65.0297 305.027 65.3064 305.33 65.6597 305.55C66.0197 305.77 66.433 305.88 66.8997 305.88C67.373 305.88 67.7764 305.76 68.1097 305.52C68.443 305.273 68.6797 304.963 68.8197 304.59L70.0397 305.16C69.913 305.513 69.703 305.84 69.4097 306.14C69.1164 306.433 68.7564 306.67 68.3297 306.85C67.9097 307.03 67.433 307.12 66.8997 307.12ZM73.1438 307V299.55H78.0938V300.75H74.5038V302.66H77.8938V303.86H74.5038V305.8H78.0938V307H73.1438ZM84.6084 307V305.97L86.6284 303.86C87.0284 303.44 87.3351 303.107 87.5484 302.86C87.7684 302.607 87.9218 302.39 88.0084 302.21C88.0951 302.03 88.1384 301.847 88.1384 301.66C88.1384 301.347 88.0384 301.1 87.8384 300.92C87.6451 300.74 87.3951 300.65 87.0884 300.65C86.7684 300.65 86.4918 300.743 86.2584 300.93C86.0251 301.11 85.8551 301.377 85.7484 301.73L84.5584 301.36C84.6384 300.967 84.8018 300.627 85.0484 300.34C85.2951 300.047 85.5951 299.823 85.9484 299.67C86.3084 299.51 86.6884 299.43 87.0884 299.43C87.5684 299.43 87.9884 299.517 88.3484 299.69C88.7151 299.863 88.9984 300.107 89.1984 300.42C89.4051 300.733 89.5084 301.1 89.5084 301.52C89.5084 301.787 89.4584 302.05 89.3584 302.31C89.2584 302.57 89.1084 302.837 88.9084 303.11C88.7084 303.377 88.4484 303.677 88.1284 304.01L86.3784 305.85H89.6084V307H84.6084ZM95.6552 307.12C95.0619 307.12 94.5419 306.96 94.0952 306.64C93.6486 306.32 93.2986 305.87 93.0452 305.29C92.7986 304.71 92.6752 304.037 92.6752 303.27C92.6752 302.497 92.7986 301.823 93.0452 301.25C93.2919 300.677 93.6386 300.23 94.0852 299.91C94.5319 299.59 95.0519 299.43 95.6452 299.43C96.2519 299.43 96.7752 299.59 97.2152 299.91C97.6619 300.23 98.0119 300.68 98.2652 301.26C98.5186 301.833 98.6452 302.503 98.6452 303.27C98.6452 304.037 98.5186 304.71 98.2652 305.29C98.0186 305.863 97.6719 306.313 97.2252 306.64C96.7786 306.96 96.2552 307.12 95.6552 307.12ZM95.6652 305.88C96.0052 305.88 96.2952 305.777 96.5352 305.57C96.7752 305.357 96.9586 305.057 97.0852 304.67C97.2186 304.277 97.2852 303.81 97.2852 303.27C97.2852 302.73 97.2186 302.267 97.0852 301.88C96.9586 301.487 96.7719 301.187 96.5252 300.98C96.2852 300.773 95.9919 300.67 95.6452 300.67C95.3119 300.67 95.0252 300.773 94.7852 300.98C94.5452 301.187 94.3586 301.487 94.2252 301.88C94.0986 302.267 94.0352 302.73 94.0352 303.27C94.0352 303.803 94.0986 304.267 94.2252 304.66C94.3586 305.047 94.5452 305.347 94.7852 305.56C95.0319 305.773 95.3252 305.88 95.6652 305.88ZM102.925 307V300.71H101.485V299.55H104.285V307H102.925ZM108.169 307L110.699 303.74L110.929 303.98C110.829 304.053 110.732 304.113 110.639 304.16C110.545 304.207 110.445 304.24 110.339 304.26C110.232 304.28 110.119 304.29 109.999 304.29C109.545 304.29 109.142 304.187 108.789 303.98C108.435 303.773 108.155 303.493 107.949 303.14C107.749 302.78 107.649 302.373 107.649 301.92C107.649 301.44 107.759 301.013 107.979 300.64C108.205 300.267 108.512 299.973 108.899 299.76C109.292 299.54 109.739 299.43 110.239 299.43C110.745 299.43 111.192 299.537 111.579 299.75C111.965 299.963 112.269 300.257 112.489 300.63C112.715 300.997 112.829 301.42 112.829 301.9C112.829 302.14 112.802 302.38 112.749 302.62C112.695 302.86 112.599 303.117 112.459 303.39C112.325 303.657 112.132 303.96 111.879 304.3L109.799 307H108.169ZM110.239 303.15C110.472 303.15 110.679 303.1 110.859 303C111.045 302.893 111.192 302.747 111.299 302.56C111.405 302.367 111.459 302.15 111.459 301.91C111.459 301.657 111.402 301.437 111.289 301.25C111.182 301.063 111.039 300.917 110.859 300.81C110.679 300.703 110.472 300.65 110.239 300.65C110.012 300.65 109.805 300.703 109.619 300.81C109.432 300.917 109.282 301.063 109.169 301.25C109.062 301.437 109.009 301.657 109.009 301.91C109.009 302.15 109.062 302.367 109.169 302.56C109.282 302.747 109.432 302.893 109.619 303C109.805 303.1 110.012 303.15 110.239 303.15Z" fill="black"/>
<g style="mix-blend-mode:luminosity" opacity="0.2">
<path d="M362.65 336.817C362.65 344.114 356.733 349.999 349.468 349.999C342.203 349.999 336.285 344.082 336.285 336.817C336.285 329.552 342.203 323.634 349.468 323.634C356.733 323.634 362.65 329.552 362.65 336.817Z" fill="#37474F"/>
<path d="M329.809 336.818C329.809 344.116 323.892 350 316.627 350C309.362 350 303.445 344.083 303.445 336.818C303.445 329.553 309.362 323.635 316.627 323.635C323.892 323.635 329.809 329.553 329.809 336.818Z" fill="#37474F"/>
<path d="M316.627 344.015C320.603 344.015 323.826 340.791 323.826 336.815C323.826 332.839 320.603 329.616 316.627 329.616C312.651 329.616 309.427 332.839 309.427 336.815C309.427 340.791 312.651 344.015 316.627 344.015Z" fill="#546E7A"/>
<path d="M349.435 344.015C353.411 344.015 356.634 340.791 356.634 336.815C356.634 332.839 353.411 329.616 349.435 329.616C345.459 329.616 342.236 332.839 342.236 336.815C342.236 340.791 345.459 344.015 349.435 344.015Z" fill="#546E7A"/>
<path d="M325.997 277.91L352.427 236.391C353.151 235.24 354.433 234.517 355.813 234.517H370.606C372.842 234.517 374.617 236.325 374.617 238.527V280.047C374.617 282.282 372.809 284.057 370.606 284.057H329.383C326.194 284.057 324.288 280.54 325.997 277.877V277.91Z" fill="#80DEEA"/>
<path d="M240.591 284.09H254.365L284.543 234.517H270.769L240.591 284.09Z" fill="#B2EBF2"/>
<path d="M374.617 238.527C374.617 236.292 372.808 234.517 370.606 234.517H363.933L333.722 284.09H347.496L374.617 239.579V238.527Z" fill="#B2EBF2"/>
<path d="M260.643 284.09H282.504L312.715 234.517H290.854L260.643 284.09Z" fill="#B2EBF2"/>
<path d="M299.624 316.79H370.981V363.145H299.624V316.79Z" fill="#7A7671"/>
<path opacity="0.3" d="M299.624 316.79H370.981V363.145H299.624V316.79Z" fill="black"/>
<path d="M227.504 234.818H238.726V239.331C238.726 239.331 231.329 239.277 226.011 239.474C218.804 239.74 217.748 249.013 217.748 249.013L215.293 249.04V246.579C215.293 240.095 221.02 234.818 227.504 234.818Z" fill="#F6A722"/>
<path d="M217.979 246.442V248.624H219.868C221.143 248.624 222.179 249.66 222.179 250.935V265.703C222.179 266.787 221.3 267.666 220.216 267.666H216.964C215.88 267.666 215 266.787 215 265.703V246.347L217.979 246.435V246.442Z" fill="#F6A722"/>
<path d="M217.979 256.819C218.075 256.819 218.157 254.794 218.157 252.292C218.157 249.79 218.075 247.765 217.979 247.765C217.884 247.765 217.802 249.79 217.802 252.292C217.802 254.794 217.884 256.819 217.979 256.819Z" fill="#1A2E35"/>
<path d="M282.75 225.102L285.354 221.639C286.602 219.975 288.566 219 290.645 219H407.982C410.47 219 412.782 220.316 414.043 222.464L415.713 225.3L662.87 226.384C666.879 226.404 670.138 229.609 670.22 233.618L672.667 356.565L628.917 363.983H587.259C589.216 359.19 590.055 353.825 589.427 348.2C587.723 332.948 575.151 320.921 559.844 319.851C541.075 318.535 525.434 333.378 525.434 351.868C525.434 356.156 526.28 360.24 527.807 363.976H364.892C366.849 359.183 367.688 353.818 367.061 348.193C365.356 332.941 352.784 320.914 337.478 319.844C318.701 318.528 303.067 333.371 303.067 351.861C303.067 356.149 303.913 360.233 305.44 363.97H244.045L236.259 354.697V233.72C236.259 229.691 240.758 225.191 244.788 225.191L282.757 225.109L282.75 225.102Z" fill="#00BAFF"/>
<path d="M299.74 242.576H433.951V309.747H299.74V242.576Z" fill="#1A2E35"/>
<path d="M303.619 245.726H364.565V305.826H303.619V245.726Z" fill="#375A64"/>
<path d="M250.126 250.642H292.786V363.983H250.126V250.642Z" fill="#1A2E35"/>
<path d="M254.79 258.408H288.797V347.068H254.79V258.408Z" fill="#375A64"/>
<path opacity="0.2" d="M254.789 258.407H267.962V329.334H254.789V258.407Z" fill="black"/>
<path opacity="0.3" d="M288.784 312.938V324.883L254.789 299.997V288.523L288.784 312.938Z" fill="white"/>
<path opacity="0.3" d="M288.797 329.444L288.852 333.357L254.79 308.724V305.274L288.797 329.444Z" fill="white"/>
<path opacity="0.2" d="M363.508 287.357L317.235 245.726H304.383L363.645 299.418L363.508 287.357Z" fill="white"/>
<path opacity="0.3" d="M364.565 306.154L306.081 251.842H303.619L361.96 306.154H364.565Z" fill="white"/>
<path d="M300.804 251.242H431.94V252.442H300.804V251.242Z" fill="#1A2E35"/>
<path d="M299.576 324.882H302.617C303.615 324.882 304.424 325.691 304.424 326.689V326.812C304.424 327.81 303.615 328.619 302.617 328.619H299.576C298.579 328.619 297.77 327.81 297.77 326.812V326.689C297.77 325.691 298.579 324.882 299.576 324.882Z" fill="#5391DA"/>
<path opacity="0.2" d="M276.402 258.407V300.399H288.784L288.797 258.407H276.402Z" fill="black"/>
<path d="M236.251 239.726H244.781V323.703H236.251V239.726Z" fill="#1A2E35"/>
<path d="M236.245 316.544C236.245 316.544 240.581 317.655 241.685 313.769C242.797 309.89 241.685 242.569 241.685 242.569H236.245V316.537V316.544Z" fill="#375A64"/>
<path opacity="0.3" d="M242.183 285.005L236.245 280.607V272.773C236.245 272.125 242.183 276.168 242.183 276.168V285.011V285.005Z" fill="white"/>
<path d="M236.245 238.342C236.245 238.438 333.421 238.52 453.266 238.52C573.112 238.52 670.308 238.438 670.308 238.342C670.308 238.247 573.153 238.165 453.266 238.165C333.38 238.165 236.245 238.247 236.245 238.342Z" fill="#1A2E35"/>
<path d="M239.504 338.525H244.024V346.345H239.504V338.525Z" fill="#5391DA"/>
<path d="M236.231 338.525H239.504V346.345H236.231V338.525Z" fill="white"/>
<path d="M333.385 380.661C317.739 380.01 305.581 366.799 306.232 351.152C306.882 335.505 320.094 323.348 335.741 323.998C351.387 324.648 363.545 337.86 362.894 353.507C362.244 369.154 349.032 381.311 333.385 380.661Z" fill="#1A2E35"/>
<path d="M354.481 352.066C354.638 363.056 345.857 372.097 334.866 372.26C323.876 372.417 314.835 363.636 314.671 352.645C314.515 341.655 323.296 332.614 334.287 332.45C345.277 332.293 354.318 341.075 354.474 352.066H354.481Z" fill="#FAFAFA"/>
<path d="M334.287 332.443C345.277 332.287 354.318 341.068 354.474 352.059L314.665 352.631C314.508 341.641 323.289 332.6 334.28 332.437L334.287 332.443Z" fill="#E1E1E1"/>
<path d="M346.702 352.175C346.797 358.87 341.445 364.379 334.75 364.474C328.055 364.57 322.546 359.217 322.451 352.522C322.355 345.827 327.707 340.318 334.402 340.223C341.098 340.127 346.607 345.479 346.702 352.175Z" fill="#1A2E35"/>
<path opacity="0.2" d="M303.626 245.726H430.76V247.595H303.626V245.726Z" fill="black"/>
<path d="M236.245 323.703C236.149 323.696 236.081 325.435 236.04 328.244C235.999 331.053 235.993 334.925 236.006 339.207C236.02 343.489 236.061 347.368 236.102 350.17C236.129 351.527 236.149 352.652 236.17 353.49C236.19 354.274 236.218 354.711 236.238 354.711C236.265 354.711 236.286 354.274 236.306 353.49C236.32 352.645 236.334 351.527 236.354 350.17C236.374 347.361 236.381 343.489 236.361 339.207C236.299 331.141 236.252 325.557 236.238 323.71L236.245 323.703Z" fill="#1A2E35"/>
</g>
<path fill-rule="evenodd" clip-rule="evenodd" d="M285.081 40C283.932 40 283 40.9318 283 42.0812V67.9812C283 69.1307 283.932 70.0625 285.081 70.0625H310.981C312.131 70.0625 313.062 69.1307 313.062 67.9812V42.0812C313.062 40.9318 312.131 40 310.981 40H285.081ZM305.354 48.8646C305.354 48.226 304.836 47.7083 304.198 47.7083C303.559 47.7083 303.042 48.226 303.042 48.8646V61.1979C303.042 61.8365 303.559 62.3542 304.198 62.3542C304.836 62.3542 305.354 61.8365 305.354 61.1979V48.8646ZM298.031 52.3333C298.67 52.3333 299.188 52.851 299.188 53.4896V61.1979C299.188 61.8365 298.67 62.3542 298.031 62.3542C297.393 62.3542 296.875 61.8365 296.875 61.1979V53.4896C296.875 52.851 297.393 52.3333 298.031 52.3333ZM293.021 56.5729C293.021 55.9344 292.503 55.4167 291.865 55.4167C291.226 55.4167 290.708 55.9344 290.708 56.5729V61.1979C290.708 61.8365 291.226 62.3542 291.865 62.3542C292.503 62.3542 293.021 61.8365 293.021 61.1979V56.5729Z" fill="#108A00"/>
</g>
<defs>
<clipPath id="clip0_36_701">
<rect width="350" height="350" fill="white"/>
</clipPath>
</defs>
</svg>
